<?xml version="1.0" encoding="UTF-8"?>
<svg version="1.1" xmlns="http://www.w3.org/2000/svg" width="668" height="152">
<path d="M0 0 C0.68578125 -0.020625 1.3715625 -0.04125 2.078125 -0.0625 C7.11810703 -0.10172165 7.11810703 -0.10172165 9.5390625 1.578125 C10.625 3.25 10.625 3.25 11.625 6.25 C12.285 6.25 12.945 6.25 13.625 6.25 C14.615 9.715 14.615 9.715 15.625 13.25 C16.50542969 13.26417969 17.38585937 13.27835938 18.29296875 13.29296875 C28.95877252 13.73096513 28.95877252 13.73096513 31.8125 16.75 C32.410625 17.575 33.00875 18.4 33.625 19.25 C34.285 19.58 34.945 19.91 35.625 20.25 C35.625 20.91 35.625 21.57 35.625 22.25 C36.285 22.25 36.945 22.25 37.625 22.25 C37.625 22.91 37.625 23.57 37.625 24.25 C38.615 24.58 39.605 24.91 40.625 25.25 C42.8125 26.875 42.8125 26.875 44.625 29.25 C44.8125 32.9375 44.8125 32.9375 44.625 36.25 C44.955 36.58 45.285 36.91 45.625 37.25 C45.75182623 39.72163686 45.81020251 42.15290611 45.8125 44.625 C45.82474609 45.31078125 45.83699219 45.9965625 45.84960938 46.703125 C45.86052331 50.44296797 45.7516842 52.0599737 43.625 55.25 C43.46 56.11625 43.295 56.9825 43.125 57.875 C42.96 58.65875 42.795 59.4425 42.625 60.25 C41.635 60.745 41.635 60.745 40.625 61.25 C40.00506436 63.62774685 40.00506436 63.62774685 39.625 66.4375 C38.95105071 70.54538136 38.10384831 74.34161517 36.625 78.25 C35.965 78.25 35.305 78.25 34.625 78.25 C34.4084375 79.6421875 34.4084375 79.6421875 34.1875 81.0625 C33.625 84.25 33.625 84.25 32.625 87.25 C31.965 87.25 31.305 87.25 30.625 87.25 C30.625 87.91 30.625 88.57 30.625 89.25 C29.965 89.25 29.305 89.25 28.625 89.25 C28.398125 89.848125 28.17125 90.44625 27.9375 91.0625 C26.28564339 93.81559434 24.38647267 94.69224619 21.625 96.25 C21.295 96.91 20.965 97.57 20.625 98.25 C14.26025842 100.34305353 8.31803146 100.52926456 1.66015625 100.48046875 C0.11103798 100.47978142 0.11103798 100.47978142 -1.46937561 100.4790802 C-3.64357662 100.47607244 -5.81777575 100.46823067 -7.99194336 100.45581055 C-11.2987441 100.43757585 -14.6052636 100.43530107 -17.91210938 100.43554688 C-20.03385656 100.4306297 -22.15560187 100.42480051 -24.27734375 100.41796875 C-25.25573715 100.41685593 -26.23413055 100.4157431 -27.24217224 100.41459656 C-41.16639485 100.31953505 -41.16639485 100.31953505 -47.375 98.25 C-47.375 97.59 -47.375 96.93 -47.375 96.25 C-49.91384453 97.40565651 -49.91384453 97.40565651 -52.375 99.25 C-53.35110842 101.79051214 -53.35110842 101.79051214 -53.375 104.25 C-52.33388882 105.51513396 -52.33388882 105.51513396 -50.03125 105.36352539 C-48.9896875 105.35828857 -47.948125 105.35305176 -46.875 105.34765625 C-45.69446045 105.34435303 -44.5139209 105.3410498 -43.29760742 105.33764648 C-42.00314697 105.32934814 -40.70868652 105.3210498 -39.375 105.3125 C-38.02384619 105.30808695 -36.67269031 105.30427235 -35.3215332 105.30102539 C-30.29356534 105.28766928 -25.2656566 105.26403352 -20.23773193 105.23962402 C-5.13051623 105.16725935 9.96277208 105.10567967 25.0625 105.6875 C26.11091064 105.72673584 27.15932129 105.76597168 28.23950195 105.80639648 C35.36702996 106.12101498 35.36702996 106.12101498 37.625 107.25 C37.955 108.24 38.285 109.23 38.625 110.25 C39.285 110.58 39.945 110.91 40.625 111.25 C41.11706349 117.6468254 41.11706349 117.6468254 38.6875 120.625 C38.006875 121.16125 37.32625 121.6975 36.625 122.25 C36.295 122.58 35.965 122.91 35.625 123.25 C35.955 123.25 36.285 123.25 36.625 123.25 C36.90669014 131.70070423 36.90669014 131.70070423 34.625 135.25 C34.25375 136.2090625 34.25375 136.2090625 33.875 137.1875 C32.00769705 140.26854987 29.72329554 142.46402428 26.625 144.25 C23.57462662 144.88528731 20.66521239 144.81730995 17.5625 144.6875 C16.37817383 144.67879883 16.37817383 144.67879883 15.16992188 144.66992188 C9.33462577 144.54763989 5.40541101 143.78762769 0.875 139.875 C-1.1848114 137.47188669 -2.03338315 136.32455169 -2.375 133.25 C-2.705 133.25 -3.035 133.25 -3.375 133.25 C-3.705 129.95 -4.035 126.65 -4.375 123.25 C-5.44878906 123.26160156 -6.52257812 123.27320312 -7.62890625 123.28515625 C-9.06510241 123.29454315 -10.50130048 123.30364238 -11.9375 123.3125 C-12.64197266 123.32087891 -13.34644531 123.32925781 -14.07226562 123.33789062 C-18.61524798 123.35882603 -22.89284892 122.99800682 -27.375 122.25 C-27.375 125.88 -27.375 129.51 -27.375 133.25 C-28.035 133.58 -28.695 133.91 -29.375 134.25 C-29.705 135.24 -30.035 136.23 -30.375 137.25 C-35.03267476 143.54415508 -35.03267476 143.54415508 -39.375 144.25 C-42.18338867 144.44698117 -44.93972689 144.57188487 -47.75 144.625 C-48.4925 144.66238281 -49.235 144.69976562 -50 144.73828125 C-54.06792734 144.80296561 -56.58878992 144.50189886 -59.80078125 141.88671875 C-64.36121885 137.21555733 -66.07400596 133.38033802 -66.6875 127 C-66.3012625 122.36515001 -64.68401625 119.21862168 -62.375 115.25 C-63.365 114.92 -64.355 114.59 -65.375 114.25 C-67.0625 111.1875 -67.0625 111.1875 -68.375 108.25 C-68.705 108.25 -69.035 108.25 -69.375 108.25 C-70.09689337 103.06640458 -70.37731398 98.90074078 -67.59375 94.31640625 C-66.12947338 92.45770301 -64.65309589 90.60846118 -63.1640625 88.76953125 C-61.41939632 86.3125232 -60.78674114 85.1451614 -60.75 82.1875 C-61.11916607 79.14285326 -61.11916607 79.14285326 -63.375 77.25 C-63.91376785 75.70703657 -64.38493486 74.13990134 -64.8125 72.5625 C-65.71184311 69.39882092 -66.66334912 66.38083442 -68 63.375 C-69.08977788 60.89823209 -69.7298909 58.83536088 -70.375 56.25 C-70.88084734 54.93165176 -71.40193979 53.61905994 -71.9375 52.3125 C-73.14957255 49.16464167 -73.69485528 46.66178961 -73.375 43.25 C-74.035 43.25 -74.695 43.25 -75.375 43.25 C-75.50777344 42.6828125 -75.64054687 42.115625 -75.77734375 41.53125 C-76.58641034 38.44304812 -77.67877115 35.47295525 -78.75390625 32.46875 C-79.375 30.25 -79.375 30.25 -79.375 26.25 C-80.035 26.25 -80.695 26.25 -81.375 26.25 C-81.375 24.27 -81.375 22.29 -81.375 20.25 C-82.13425781 20.27320312 -82.89351562 20.29640625 -83.67578125 20.3203125 C-84.66964844 20.33835937 -85.66351563 20.35640625 -86.6875 20.375 C-88.16669922 20.40980469 -88.16669922 20.40980469 -89.67578125 20.4453125 C-93.36411526 20.17842871 -95.33411387 18.27725742 -98.375 16.25 C-98.80859375 14.2265625 -98.80859375 14.2265625 -98.8125 11.875 C-98.84150391 10.71871094 -98.84150391 10.71871094 -98.87109375 9.5390625 C-98.1649321 6.28071031 -97.08718819 5.17673849 -94.375 3.25 C-90.84375 2.7890625 -90.84375 2.7890625 -86.875 2.875 C-85.5653125 2.88789062 -84.255625 2.90078125 -82.90625 2.9140625 C-79.76056148 3.21332048 -77.995208 3.57894898 -75.375 5.25 C-75.375 6.24 -75.375 7.23 -75.375 8.25 C-74.385 8.25 -73.395 8.25 -72.375 8.25 C-67.60031505 12.72626714 -66.29034595 18.90890385 -64.98046875 25.12109375 C-64.07933769 28.28958684 -62.68561582 31.23201658 -61.375 34.25 C-53.49146695 34.37677079 -45.60819669 34.46433995 -37.72387695 34.5246582 C-35.04161546 34.54697994 -32.3599458 34.58176794 -29.67797852 34.62719727 C-25.82290745 34.68784525 -21.9687423 34.71621127 -18.11328125 34.73828125 C-16.91415604 34.76408768 -15.71503082 34.7898941 -14.47956848 34.81648254 C-7.67087425 35.04275853 -7.67087425 35.04275853 -2.07885742 31.71948242 C-1.235448 30.49708862 -1.235448 30.49708862 -0.375 29.25 C-2.355 28.59 -4.335 27.93 -6.375 27.25 C-6.375 26.59 -6.375 25.93 -6.375 25.25 C-7.365 25.25 -8.355 25.25 -9.375 25.25 C-13.24863019 21.37636981 -13.72794749 18.12353855 -13.9375 12.6875 C-13.74865078 5.78663494 -13.74865078 5.78663494 -10.9375 3 C-10.091875 2.4225 -9.24625 1.845 -8.375 1.25 C-6.39539491 -0.72960509 -2.69753166 0.020056 0 0 Z M-93.375 4.25 C-93.375 4.58 -93.375 4.91 -93.375 5.25 C-89.415 5.25 -85.455 5.25 -81.375 5.25 C-81.375 4.92 -81.375 4.59 -81.375 4.25 C-85.335 4.25 -89.295 4.25 -93.375 4.25 Z M-77.375 31.25 C-76.375 33.25 -76.375 33.25 -76.375 33.25 Z M-76.375 35.25 C-75.375 37.25 -75.375 37.25 -75.375 37.25 Z M-63.375 35.25 C-62.375 37.25 -62.375 37.25 -62.375 37.25 Z M-61.375 36.25 C-61.375 36.58 -61.375 36.91 -61.375 37.25 C-43.885 37.25 -26.395 37.25 -8.375 37.25 C-8.375 36.92 -8.375 36.59 -8.375 36.25 C-25.865 36.25 -43.355 36.25 -61.375 36.25 Z M37.625 65.25 C38.625 67.25 38.625 67.25 38.625 67.25 Z M36.625 70.25 C37.625 72.25 37.625 72.25 37.625 72.25 Z M-63.375 72.25 C-62.375 74.25 -62.375 74.25 -62.375 74.25 Z M-59.375 83.25 C-58.375 85.25 -58.375 85.25 -58.375 85.25 Z M-14.375 97.25 C-14.375 97.58 -14.375 97.91 -14.375 98.25 C-12.395 98.25 -10.415 98.25 -8.375 98.25 C-8.375 97.92 -8.375 97.59 -8.375 97.25 C-10.355 97.25 -12.335 97.25 -14.375 97.25 Z M-1.375 97.25 C-1.375 97.58 -1.375 97.91 -1.375 98.25 C2.585 98.25 6.545 98.25 10.625 98.25 C10.625 97.92 10.625 97.59 10.625 97.25 C6.665 97.25 2.705 97.25 -1.375 97.25 Z M-30.375 120.25 C-30.375 120.58 -30.375 120.91 -30.375 121.25 C-20.475 121.25 -10.575 121.25 -0.375 121.25 C-0.375 120.92 -0.375 120.59 -0.375 120.25 C-10.275 120.25 -20.175 120.25 -30.375 120.25 Z M-65.375 124.25 C-65.375 126.23 -65.375 128.21 -65.375 130.25 C-65.045 130.25 -64.715 130.25 -64.375 130.25 C-64.375 128.27 -64.375 126.29 -64.375 124.25 C-64.705 124.25 -65.035 124.25 -65.375 124.25 Z M-64.375 132.25 C-63.375 134.25 -63.375 134.25 -63.375 134.25 Z " fill="#5C2830" transform="translate(102.375,3.75)"/>
<path d="M0 0 C1.16450684 -0.00786278 1.16450684 -0.00786278 2.35253906 -0.0158844 C3.98631601 -0.02227917 5.62013916 -0.0210007 7.25390625 -0.01245117 C9.74302586 -0.00393012 12.22985599 -0.03275216 14.71875 -0.06445312 C16.31249932 -0.06606522 17.90625267 -0.06548745 19.5 -0.0625 C20.23766602 -0.07373398 20.97533203 -0.08496796 21.73535156 -0.09654236 C26.89037754 -0.02754945 29.91546479 0.97991927 33.75 4.43359375 C37.50792524 10.4981587 37.14104069 16.51670527 37.04296875 23.4921875 C37.03872391 24.6364772 37.03447906 25.78076691 37.03010559 26.95973206 C37.01337804 30.59709686 36.97573565 34.23389777 36.9375 37.87109375 C36.92244556 40.34439301 36.90875848 42.817701 36.89648438 45.29101562 C36.86349386 51.33873249 36.81335313 57.38612282 36.75 63.43359375 C39.72 63.43359375 42.69 63.43359375 45.75 63.43359375 C45.74333817 62.76818069 45.73667633 62.10276764 45.72981262 61.41719055 C45.66343321 54.49049716 45.61818837 47.56389415 45.58520508 40.63696289 C45.57012038 38.05196462 45.54964998 35.46699193 45.52368164 32.88208008 C45.48728558 29.16611415 45.47027015 25.45048668 45.45703125 21.734375 C45.44154739 20.57899734 45.42606354 19.42361969 45.41011047 18.23323059 C45.40988388 17.15248764 45.40965729 16.07174469 45.40942383 14.95825195 C45.40276199 14.01005081 45.39610016 13.06184967 45.38923645 12.08491516 C45.98783434 7.685703 48.3664805 4.25319333 51.75 1.43359375 C55.44561454 0.20172224 58.89159725 0.25210675 62.7421875 0.23046875 C63.91661911 0.22191864 63.91661911 0.22191864 65.11477661 0.2131958 C66.77067721 0.2037553 68.42659651 0.19721559 70.08251953 0.19335938 C72.60873366 0.18365623 75.13413308 0.15262593 77.66015625 0.12109375 C79.27082851 0.114563 80.88150658 0.10931281 82.4921875 0.10546875 C83.6205452 0.08694855 83.6205452 0.08694855 84.771698 0.0680542 C90.30424143 0.09141712 93.37011683 1.39369389 97.5 4.93359375 C100.36539962 8.37207329 99.89179011 12.42422181 99.87939453 16.64306641 C99.88202301 17.73859077 99.88202301 17.73859077 99.88470459 18.85624695 C99.88910572 21.27007422 99.88619184 23.68382824 99.8828125 26.09765625 C99.88348589 27.7724916 99.88445621 29.44732685 99.88571167 31.12216187 C99.88718616 34.63092988 99.8850415 38.13967244 99.88037109 41.6484375 C99.87466515 46.15582612 99.87795984 50.66315531 99.88394356 55.17054176 C99.88754837 58.62765963 99.88641111 62.08476328 99.88381577 65.54188156 C99.88314673 67.20454287 99.88397411 68.86720545 99.88629532 70.52986526 C99.88882149 72.84758196 99.8849822 75.1652008 99.87939453 77.48291016 C99.88141876 78.17590714 99.88344299 78.86890411 99.88552856 79.582901 C99.86426463 84.31932912 99.86426463 84.31932912 98.75 85.43359375 C91.82 85.43359375 84.89 85.43359375 77.75 85.43359375 C77.75 64.64359375 77.75 43.85359375 77.75 22.43359375 C74.45 22.43359375 71.15 22.43359375 67.75 22.43359375 C67.76571045 24.07352295 67.7814209 25.71345215 67.79760742 27.40307617 C67.85191057 33.48782438 67.88635186 39.57255116 67.91479492 45.6574707 C67.92988057 48.29097089 67.95035166 50.92444596 67.97631836 53.55786133 C68.01271019 57.34332479 68.0297289 61.12845602 68.04296875 64.9140625 C68.05845261 66.09131393 68.07393646 67.26856537 68.08988953 68.48149109 C68.09011612 69.58225479 68.09034271 70.68301849 68.09057617 71.81713867 C68.10056892 73.26608772 68.10056892 73.26608772 68.11076355 74.74430847 C67.57957344 78.70402594 65.7745136 81.3174669 63.10913086 84.22119141 C59.52457274 86.06336419 55.94226048 85.86131378 52.00390625 85.83203125 C51.15577866 85.83490143 50.30765106 85.83777161 49.43382263 85.84072876 C47.64264253 85.84276739 45.85144007 85.83725159 44.06030273 85.82470703 C41.3254996 85.80866998 38.59217873 85.82455181 35.85742188 85.84375 C34.11458008 85.84176714 32.37173921 85.83792259 30.62890625 85.83203125 C29.8141835 85.83810394 28.99946075 85.84417664 28.16004944 85.85043335 C23.54320545 85.79355008 20.48797124 85.43578553 16.75 82.43359375 C13.8439296 78.07448815 13.62394187 74.24348507 13.63647461 69.0925293 C13.63655014 68.05182785 13.63662567 67.0111264 13.63670349 65.93888855 C13.64186478 64.82725845 13.64702606 63.71562836 13.65234375 62.5703125 C13.6537587 61.4231929 13.65517365 60.2760733 13.65663147 59.0941925 C13.66222139 55.43646621 13.67477211 51.7788015 13.6875 48.12109375 C13.6925163 45.63867276 13.69707898 43.15625081 13.70117188 40.67382812 C13.71218753 34.59372905 13.7289157 28.5136658 13.75 22.43359375 C10.78 22.43359375 7.81 22.43359375 4.75 22.43359375 C4.75 43.22359375 4.75 64.01359375 4.75 85.43359375 C-2.51 85.43359375 -9.77 85.43359375 -17.25 85.43359375 C-17.31779866 75.48040243 -17.3728293 65.52736469 -17.40543652 55.57399464 C-17.42108697 50.95215584 -17.44231393 46.33048333 -17.47631836 41.70874023 C-17.50893392 37.24780838 -17.52685768 32.78703639 -17.53463173 28.32599449 C-17.54017129 26.62474743 -17.55098876 24.92350903 -17.56719017 23.22233009 C-17.58899391 20.83788831 -17.59196574 18.45410565 -17.59057617 16.06958008 C-17.601362 15.36754959 -17.61214783 14.6655191 -17.6232605 13.94221497 C-17.595892 9.59693889 -16.91236855 6.88645518 -14.25 3.43359375 C-9.63945653 0.35273626 -5.40382749 -0.02150524 0 0 Z " fill="#A14854" transform="translate(201.25,32.56640625)"/>
<path d="M0 0 C0.78186676 0.00359528 1.56373352 0.00719055 2.36929321 0.01089478 C3.18873917 0.01074875 4.00818512 0.01060272 4.85246277 0.01045227 C7.57416385 0.01115164 10.29579737 0.01894515 13.01748657 0.02676392 C14.89935773 0.02862801 16.78122938 0.03005195 18.6631012 0.03105164 C23.62631561 0.0348775 28.58950096 0.04470836 33.55270386 0.05575562 C38.61322639 0.06596827 43.67375359 0.07054894 48.73428345 0.07559204 C58.67114521 0.08633057 68.60798535 0.10340781 78.54483032 0.12442017 C78.63759927 10.06026853 78.70863031 19.9960135 78.75207901 29.93220711 C78.77293458 34.54623867 78.80121494 39.15997346 78.84658813 43.77383423 C78.8901186 48.2282998 78.91398271 52.68248029 78.92433929 57.13714218 C78.93171777 58.83479168 78.94612638 60.53242596 78.96775055 62.22995377 C78.99688113 64.61194559 79.00078243 66.99276653 78.99893188 69.37490845 C79.01331299 70.07334366 79.02769409 70.77177887 79.04251099 71.49137878 C79.00070046 76.48050038 77.67911798 79.29110883 74.54483032 83.12442017 C70.89909993 85.55490709 69.12785801 85.39342205 64.78189087 85.43081665 C64.09858704 85.43914017 63.4152832 85.44746368 62.71127319 85.45603943 C60.45130722 85.48014278 58.19162997 85.48891249 55.93154907 85.49551392 C54.35837213 85.50448122 52.78519606 85.51360308 51.21202087 85.52287292 C47.91253589 85.53936721 44.61315242 85.5470636 41.31362915 85.54995728 C37.09332063 85.55533644 32.87397142 85.59299398 28.65393353 85.63870144 C25.40332085 85.66850322 22.15293809 85.67568152 18.9022007 85.67668343 C17.34689765 85.68088091 15.79159362 85.69329643 14.2364254 85.71420097 C12.05555984 85.74117819 9.87690275 85.73627358 7.69595337 85.7237854 C5.83755074 85.73139137 5.83755074 85.73139137 3.94160461 85.739151 C-0.5787203 84.92108572 -2.21397894 83.3308946 -5.45516968 80.12442017 C-6.64212386 77.7505118 -6.57592801 76.32197065 -6.56869507 73.67471313 C-6.56857422 72.74102905 -6.56845337 71.80734497 -6.56832886 70.84536743 C-6.56321289 69.86237671 -6.55809692 68.87938599 -6.55282593 67.86660767 C-6.55181885 66.96434448 -6.55081177 66.0620813 -6.54977417 65.13247681 C-6.54453326 61.75477837 -6.53057204 58.37709802 -6.51766968 54.99942017 C-6.49704468 47.45067017 -6.47641968 39.90192017 -6.45516968 32.12442017 C11.03483032 32.12442017 28.52483032 32.12442017 46.54483032 32.12442017 C46.54483032 39.05442017 46.54483032 45.98442017 46.54483032 53.12442017 C45.54483032 54.12442017 45.54483032 54.12442017 42.67739868 54.23794556 C41.42579956 54.23270874 40.17420044 54.22747192 38.88467407 54.22207642 C37.88797447 54.21995399 37.88797447 54.21995399 36.87113953 54.2177887 C34.74149133 54.21217535 32.61194693 54.1996207 30.48233032 54.18692017 C29.04157663 54.18190688 27.60082129 54.17734368 26.1600647 54.17324829 C22.6216193 54.16220161 19.08323493 54.14492808 15.54483032 54.12442017 C15.54483032 57.09442017 15.54483032 60.06442017 15.54483032 63.12442017 C29.07483032 63.12442017 42.60483032 63.12442017 56.54483032 63.12442017 C56.54483032 49.59442017 56.54483032 36.06442017 56.54483032 22.12442017 C35.75483032 22.12442017 14.96483032 22.12442017 -6.45516968 22.12442017 C-6.45516968 0.01253057 -6.45516968 0.01253057 0 0 Z " fill="#A14854" transform="translate(412.4551696777344,32.875579833984375)"/>
<path d="M0 0 C0.6461879 -0.00511093 1.29237579 -0.01022186 1.95814514 -0.01548767 C4.08221847 -0.02932426 6.20596524 -0.02843174 8.33007812 -0.02612305 C9.81311157 -0.03001269 11.2961439 -0.03434792 12.7791748 -0.03910828 C15.88260516 -0.04655729 18.98592171 -0.04628842 22.08935547 -0.04101562 C26.06061335 -0.03521668 30.03140549 -0.05216821 34.00258636 -0.0753603 C37.06356516 -0.09011027 40.12443203 -0.09096775 43.18544006 -0.08785057 C44.64942855 -0.08836295 46.11342343 -0.09358511 47.57737732 -0.10366249 C49.62610968 -0.11603742 51.67393773 -0.10923057 53.72265625 -0.09765625 C55.46875183 -0.09860039 55.46875183 -0.09860039 57.25012207 -0.0995636 C61.92594085 0.46285281 65.36103478 2.67430619 68.36132812 6.2746582 C71.53013416 15.78107631 72.26023443 27.31792634 67.81152344 36.45922852 C62.74641872 44.22341972 55.64519325 52.35172843 46.35131836 54.80529785 C36.58514659 56.54001143 26.10624287 55.87663395 16.36132812 54.2746582 C14.77195256 52.68528264 15.2315167 51.03565975 15.22851562 48.8371582 C15.22658203 47.49524414 15.22658203 47.49524414 15.22460938 46.1262207 C15.22847656 45.18520508 15.23234375 44.24418945 15.23632812 43.2746582 C15.23052734 41.86313477 15.23052734 41.86313477 15.22460938 40.4230957 C15.22589844 39.52848633 15.2271875 38.63387695 15.22851562 37.7121582 C15.22964355 36.88586914 15.23077148 36.05958008 15.23193359 35.20825195 C15.36132812 33.2746582 15.36132812 33.2746582 16.36132812 32.2746582 C18.6528423 32.18674845 20.94705337 32.16771782 23.24023438 32.17700195 C24.27022804 32.17912437 24.27022804 32.17912437 25.32102966 32.18128967 C27.52200614 32.18690341 29.72288221 32.19945813 31.92382812 32.2121582 C33.41275895 32.21717144 34.90169137 32.22173465 36.390625 32.22583008 C40.04755887 32.23687727 43.70443371 32.25415107 47.36132812 32.2746582 C47.36132812 28.9746582 47.36132812 25.6746582 47.36132812 22.2746582 C33.83132813 22.2746582 20.30132813 22.2746582 6.36132812 22.2746582 C6.36132812 35.8046582 6.36132812 49.3346582 6.36132812 63.2746582 C12.93167969 63.23985352 12.93167969 63.23985352 19.63476562 63.2043457 C23.12190639 63.19148865 26.60904047 63.18064133 30.09619141 63.17115784 C33.78032162 63.16058554 37.46436019 63.1464518 41.1484375 63.1237793 C44.69512468 63.1020883 48.24172285 63.09009754 51.78847122 63.08490372 C53.14330065 63.0812012 54.49812507 63.07397131 55.85291672 63.06319809 C57.7467857 63.04873373 59.64074377 63.04784172 61.53466797 63.04760742 C62.61388519 63.0431662 63.69310242 63.03872498 64.80502319 63.03414917 C67.36132812 63.2746582 67.36132812 63.2746582 69.36132812 65.2746582 C69.58837891 67.33764648 69.58837891 67.33764648 69.55664062 69.8449707 C69.55019531 70.74086914 69.54375 71.63676758 69.53710938 72.55981445 C69.51197266 73.96553711 69.51197266 73.96553711 69.48632812 75.3996582 C69.47730469 76.34454102 69.46828125 77.28942383 69.45898438 78.26293945 C69.43537335 80.60043112 69.40244329 82.93741944 69.36132812 85.2746582 C59.29513965 85.39061358 49.2291106 85.47940473 39.16238976 85.53371906 C34.48773956 85.55979014 29.81354699 85.59514235 25.13916016 85.65185547 C20.62632386 85.7062646 16.11392715 85.73609747 11.60078812 85.74904442 C9.88078518 85.75826838 8.16080576 85.7762811 6.44099045 85.80330849 C4.02768107 85.83971892 1.61617748 85.84459881 -0.79736328 85.84228516 C-1.85904221 85.86924973 -1.85904221 85.86924973 -2.94216919 85.89675903 C-8.55939803 85.83866122 -10.83393425 84.10469515 -14.63867188 80.2746582 C-16.08641666 77.37916863 -15.79002864 74.84435455 -15.81567383 71.609375 C-15.82224503 70.9246109 -15.82881622 70.2398468 -15.83558655 69.53433228 C-15.85532549 67.26417942 -15.86698365 64.99409275 -15.87695312 62.72387695 C-15.88102865 61.94863993 -15.88510418 61.1734029 -15.88930321 60.37467384 C-15.91016693 56.27110688 -15.92446706 52.16757339 -15.93383789 48.06396484 C-15.94490049 43.82688691 -15.97929725 39.59033442 -16.01900959 35.35344219 C-16.04516512 32.09431487 -16.05352877 28.83531291 -16.05711937 25.57608986 C-16.06198847 24.01438665 -16.07361177 22.45268916 -16.09215736 20.89108849 C-16.11652676 18.70301162 -16.1155887 16.51629624 -16.10864258 14.328125 C-16.11450882 13.08395309 -16.12037506 11.83978119 -16.12641907 10.5579071 C-15.53906713 6.60417324 -14.5099657 5.02148778 -11.63867188 2.2746582 C-7.77752419 0.13277488 -4.36793392 0.01728838 0 0 Z " fill="#A14854" transform="translate(516.638671875,32.725341796875)"/>
<path d="M0 0 C0.72363235 -0.0049649 1.44726471 -0.00992981 2.19282532 -0.01504517 C4.5982863 -0.0297065 7.00368127 -0.03647653 9.40917969 -0.04199219 C11.07729088 -0.04774188 12.74540205 -0.05349963 14.41351318 -0.05926514 C17.91744292 -0.06978745 21.42134964 -0.07562155 24.92529297 -0.07910156 C29.4122796 -0.08457857 33.89896158 -0.10858424 38.38585281 -0.13707352 C41.834563 -0.15571455 45.28320017 -0.16090635 48.73195648 -0.16243744 C50.38574635 -0.16546291 52.03953497 -0.17348793 53.69327545 -0.18662262 C56.01059449 -0.20370857 58.32717449 -0.20179658 60.64453125 -0.1953125 C61.96277893 -0.19895813 63.28102661 -0.20260376 64.63922119 -0.20635986 C69.52258652 0.31504856 72.9485784 2.40216126 76.08105469 6.16113281 C77.20204456 9.52410244 77.22856196 12.10348094 77.25805664 15.64868164 C77.26462784 16.30272476 77.27119904 16.95676788 77.27796936 17.63063049 C77.29766483 19.79314292 77.3093565 21.95558601 77.31933594 24.11816406 C77.32341146 24.85813818 77.32748699 25.5981123 77.33168602 26.36050987 C77.35253079 30.27720229 77.36683935 34.19385984 77.3762207 38.1105957 C77.38728187 42.14914054 77.42168228 46.1871339 77.4613924 50.22548389 C77.48757756 53.33710227 77.49591418 56.44858959 77.49950218 59.56030846 C77.50436328 61.04861869 77.51596382 62.53692326 77.53454018 64.0251255 C77.55897408 66.11232455 77.55796005 68.19810116 77.55102539 70.28540039 C77.55689163 71.4710408 77.56275787 72.65668121 77.56880188 73.87825012 C76.97402447 77.8815217 75.59413077 80.02257291 73.08105469 83.16113281 C69.4353243 85.59161974 67.66408238 85.4301347 63.31811523 85.4675293 C62.6348114 85.47585281 61.95150757 85.48417633 61.24749756 85.49275208 C58.98753159 85.51685542 56.72785434 85.52562513 54.46777344 85.53222656 C52.8945965 85.54119387 51.32142043 85.55031573 49.74824524 85.55958557 C46.44876026 85.57607985 43.14937678 85.58377625 39.84985352 85.58666992 C35.629545 85.59204908 31.41019579 85.62970663 27.19015789 85.67541409 C23.93954522 85.70521587 20.68916246 85.71239417 17.43842506 85.71339607 C15.88312202 85.71759355 14.32781798 85.73000908 12.77264977 85.75091362 C10.59178421 85.77789084 8.41312712 85.77298622 6.23217773 85.76049805 C4.3737751 85.76810402 4.3737751 85.76810402 2.47782898 85.77586365 C-2.04249593 84.95779837 -3.67775457 83.36760724 -6.91894531 80.16113281 C-10.82950675 72.34000994 -9.86009862 60.38439561 -7.91894531 52.16113281 C-3.8842164 43.20787722 3.07451945 36.10499993 12.08105469 32.16113281 C22.73658609 29.60098982 34.32522453 30.90234822 45.08105469 32.16113281 C45.10993283 35.64028222 45.12781156 39.11940112 45.14355469 42.59863281 C45.15193359 43.59185547 45.1603125 44.58507812 45.16894531 45.60839844 C45.17216797 46.55263672 45.17539062 47.496875 45.17871094 48.46972656 C45.18394775 49.3442749 45.18918457 50.21882324 45.19458008 51.11987305 C45.08105469 53.16113281 45.08105469 53.16113281 44.08105469 54.16113281 C41.86250204 54.24896823 39.64116972 54.2680789 37.42089844 54.25878906 C36.42419884 54.25666664 36.42419884 54.25666664 35.40736389 54.25450134 C33.2777157 54.24888799 31.14817129 54.23633335 29.01855469 54.22363281 C27.57780099 54.21861953 26.13704566 54.21405632 24.69628906 54.20996094 C21.15784367 54.19891426 17.6194593 54.18164073 14.08105469 54.16113281 C14.08105469 57.13113281 14.08105469 60.10113281 14.08105469 63.16113281 C27.61105469 63.16113281 41.14105469 63.16113281 55.08105469 63.16113281 C55.08105469 49.63113281 55.08105469 36.10113281 55.08105469 22.16113281 C34.29105469 22.16113281 13.50105469 22.16113281 -7.91894531 22.16113281 C-7.91894531 0.04111627 -7.91894531 0.04111627 0 0 Z " fill="#A14854" transform="translate(318.9189453125,32.8388671875)"/>
<path d="M0 0 C2.84374022 0.74415632 4.10377268 2.37597448 5.6953125 4.77734375 C7.46949693 7.02861979 9.53346381 8.31928904 11.90234375 9.921875 C15.92042263 12.89551947 15.92042263 12.89551947 16.66796875 15.76953125 C16.65234375 17.984375 16.65234375 17.984375 16.08984375 21.546875 C15.09984375 21.546875 14.10984375 21.546875 13.08984375 21.546875 C12.53296875 23.2484375 12.53296875 23.2484375 11.96484375 24.984375 C8.45081011 35.50997811 4.71559351 45.96187308 0.83984375 56.359375 C0.59387451 57.02267822 0.34790527 57.68598145 0.09448242 58.36938477 C-0.55619377 60.10190271 -1.23199924 61.82492814 -1.91015625 63.546875 C-2.173125 64.27261719 -2.43609375 64.99835938 -2.70703125 65.74609375 C-4.63948839 68.63850525 -6.72593925 70.26201352 -9.91015625 71.546875 C-14.50351283 72.16235999 -19.07021069 72.13106832 -23.69921875 72.11328125 C-25.04870023 72.1185213 -26.39817805 72.12479918 -27.74765015 72.13206482 C-30.566969 72.14244183 -33.3857822 72.13794458 -36.20507812 72.12329102 C-39.8147285 72.10606288 -43.422793 72.12965862 -47.03226662 72.16478062 C-49.81534328 72.18675123 -52.5980397 72.18531503 -55.38117599 72.1770153 C-57.35764469 72.17579914 -59.33408985 72.195721 -61.31045532 72.21595764 C-63.11285172 72.19715797 -63.11285172 72.19715797 -64.95166016 72.17797852 C-66.00833893 72.17701675 -67.0650177 72.17605499 -68.15371704 72.17506409 C-71.86201935 71.32994658 -72.87076489 69.66564071 -74.91015625 66.546875 C-75.89575195 64.58422852 -75.89575195 64.58422852 -76.5859375 62.67578125 C-76.8533374 61.94673584 -77.1207373 61.21769043 -77.39624023 60.46655273 C-77.66895752 59.68868408 -77.9416748 58.91081543 -78.22265625 58.109375 C-78.66170288 56.8874646 -78.66170288 56.8874646 -79.10961914 55.64086914 C-88.91015625 28.02259577 -88.91015625 28.02259577 -88.91015625 23.546875 C-88.17845718 23.55433243 -87.44675812 23.56178986 -86.69288635 23.56947327 C-79.76408688 23.63204739 -72.83636109 23.65096119 -65.9073801 23.62203312 C-62.34560691 23.60867076 -58.78546731 23.61161101 -55.22387695 23.65307617 C-51.11959903 23.70011947 -47.01850994 23.67397285 -42.9140625 23.64453125 C-41.01509972 23.68139793 -41.01509972 23.68139793 -39.07777405 23.7190094 C-32.4132732 23.61164504 -28.60725295 23.02580959 -23.76538086 18.24389648 C-22.44611522 16.70692214 -21.15899281 15.14160357 -19.91015625 13.546875 C-18.68612869 12.12576569 -17.45780287 10.70833097 -16.22265625 9.296875 C-15.65933594 8.65234375 -15.09601563 8.0078125 -14.515625 7.34375 C-10.16620259 2.47578331 -6.8400133 -0.40971793 0 0 Z " fill="#F9981C" transform="translate(127.91015625,19.453125)"/>
<path d="M0 0 C1.8569751 -0.00472824 1.8569751 -0.00472824 3.75146484 -0.009552 C5.11295609 -0.00776222 6.47444701 -0.00571127 7.8359375 -0.00341797 C9.22216814 -0.00409106 10.60839867 -0.00506113 11.99462891 -0.00631714 C14.90333172 -0.00779387 17.81200387 -0.00564037 20.72070312 -0.00097656 C24.45690348 0.00472073 28.19303202 0.00144159 31.92922974 -0.00454903 C34.79273016 -0.00815532 37.65621343 -0.00701574 40.51971436 -0.00442123 C41.89768482 -0.00375215 43.27565682 -0.00457973 44.65362549 -0.00690079 C46.57637504 -0.00942839 48.49913002 -0.0048957 50.421875 0 C52.06615479 0.00119339 52.06615479 0.00119339 53.74365234 0.00241089 C56.2109375 0.12939453 56.2109375 0.12939453 57.2109375 1.12939453 C57.30974547 2.60592117 57.34172995 4.08706689 57.34375 5.56689453 C57.34503906 6.46150391 57.34632813 7.35611328 57.34765625 8.27783203 C57.34378906 9.21884766 57.33992187 10.15986328 57.3359375 11.12939453 C57.33980469 12.07041016 57.34367188 13.01142578 57.34765625 13.98095703 C57.34636719 14.87556641 57.34507812 15.77017578 57.34375 16.69189453 C57.34262207 17.51818359 57.34149414 18.34447266 57.34033203 19.19580078 C57.2109375 21.12939453 57.2109375 21.12939453 56.2109375 22.12939453 C54.7222189 22.21608885 53.2294925 22.23642947 51.73828125 22.22705078 C50.83916016 22.22382812 49.94003906 22.22060547 49.01367188 22.21728516 C48.06814453 22.20890625 47.12261719 22.20052734 46.1484375 22.19189453 C45.19904297 22.18738281 44.24964844 22.18287109 43.27148438 22.17822266 C40.91790685 22.16639563 38.56445273 22.14991478 36.2109375 22.12939453 C36.21315811 22.90391464 36.21537872 23.67843475 36.21766663 24.47642517 C36.23766884 31.76060474 36.25291127 39.04477108 36.26274967 46.32897091 C36.26797764 50.0742249 36.27507372 53.81945629 36.28637695 57.56469727 C36.29720891 61.17621141 36.30321499 64.78770374 36.30581474 68.39923286 C36.30766844 69.77999782 36.31128799 71.16076153 36.31666756 72.54151726 C36.32388197 74.46915405 36.32434559 76.3968126 36.32446289 78.32446289 C36.3266835 79.42366562 36.32890411 80.52286835 36.33119202 81.65538025 C36.2109375 84.12939453 36.2109375 84.12939453 35.2109375 85.12939453 C28.2809375 85.12939453 21.3509375 85.12939453 14.2109375 85.12939453 C14.2109375 64.33939453 14.2109375 43.54939453 14.2109375 22.12939453 C7.2809375 22.12939453 0.3509375 22.12939453 -6.7890625 22.12939453 C-6.8096875 18.68501953 -6.8303125 15.24064453 -6.8515625 11.69189453 C-6.8606665 10.60465088 -6.86977051 9.51740723 -6.87915039 8.3972168 C-6.88164795 7.54699951 -6.88414551 6.69678223 -6.88671875 5.82080078 C-6.89195557 4.94625244 -6.89719238 4.0717041 -6.90258789 3.1706543 C-6.66501866 -1.10099379 -3.5976037 0.00261108 0 0 Z " fill="#A24854" transform="translate(602.7890625,32.87060546875)"/>
<path d="M0 0 C0.99 0.33 1.98 0.66 3 1 C2.96519531 1.96421875 2.93039063 2.9284375 2.89453125 3.921875 C2.86746094 5.18515625 2.84039062 6.4484375 2.8125 7.75 C2.77769531 9.00296875 2.74289063 10.2559375 2.70703125 11.546875 C3.02673414 15.3151064 3.31289144 16.42898959 6 19 C9.05872389 19.58963439 9.05872389 19.58963439 12.62011719 19.4699707 C13.28896439 19.4721611 13.95781158 19.4743515 14.64692688 19.47660828 C16.86407587 19.47892364 19.07990206 19.45261076 21.296875 19.42578125 C22.84848612 19.42085223 24.40010321 19.41755669 25.95172119 19.41581726 C29.21361139 19.40816587 32.47506464 19.38759462 35.73681641 19.35668945 C39.87515642 19.31750883 44.01321021 19.29914171 48.15171432 19.28938007 C52.13763848 19.27928182 56.12349666 19.25949346 60.109375 19.23828125 C60.85103661 19.2348855 61.59269821 19.23148975 62.35683441 19.2279911 C80.25848748 19.14279674 80.25848748 19.14279674 98 17 C98.495 18.485 98.495 18.485 99 20 C99.66 20.33 100.32 20.66 101 21 C101.49206349 27.3968254 101.49206349 27.3968254 99.0625 30.375 C98.381875 30.91125 97.70125 31.4475 97 32 C96.67 32.33 96.34 32.66 96 33 C96.33 33 96.66 33 97 33 C97.28169014 41.45070423 97.28169014 41.45070423 95 45 C94.62875 45.9590625 94.62875 45.9590625 94.25 46.9375 C92.38269705 50.01854987 90.09829554 52.21402428 87 54 C83.94962662 54.63528731 81.04021239 54.56730995 77.9375 54.4375 C77.14794922 54.43169922 76.35839844 54.42589844 75.54492188 54.41992188 C69.70962577 54.29763989 65.78041101 53.53762769 61.25 49.625 C59.1901886 47.22188669 58.34161685 46.07455169 58 43 C57.67 43 57.34 43 57 43 C56.67 39.7 56.34 36.4 56 33 C54.92621094 33.01160156 53.85242188 33.02320313 52.74609375 33.03515625 C51.30989759 33.04454315 49.87369952 33.05364238 48.4375 33.0625 C47.73302734 33.07087891 47.02855469 33.07925781 46.30273438 33.08789062 C41.75975202 33.10882603 37.48215108 32.74800682 33 32 C33 35.63 33 39.26 33 43 C32.01 43.495 32.01 43.495 31 44 C30.67 44.99 30.34 45.98 30 47 C27.52620632 49.47379368 25.3071065 49.96652922 22 51 C21.01 51.495 21.01 51.495 20 52 C7.55505796 53.20324025 7.55505796 53.20324025 3.1875 49.625 C1 47 1 47 1 45 C0.34 45 -0.32 45 -1 45 C-2.21949723 40.66291713 -2.49784574 36.48061164 -2 32 C-1.02763513 30.3170608 -0.03435556 28.64556566 1 27 C0.20696892 24.26844849 -1.39831262 22.44477635 -3.0625 20.125 C-5.13108904 16.78856607 -5.92023422 14.90852319 -6 11 C-4.56060569 6.82575651 -2.84154408 3.38279057 0 0 Z M30 30 C30 30.33 30 30.66 30 31 C39.9 31 49.8 31 60 31 C60 30.67 60 30.34 60 30 C50.1 30 40.2 30 30 30 Z " fill="#59252F" transform="translate(42,94)"/>
<path d="M0 0 C18.15 0 36.3 0 55 0 C48.25 7.875 48.25 7.875 45 11 C45.495 12.485 45.495 12.485 46 14 C46 18 46 18 43.875 20.375 C42.92625 21.24125 41.9775 22.1075 41 23 C39.90772938 24.0112649 38.82437459 25.03224224 37.75 26.0625 C37.24984375 26.52785156 36.7496875 26.99320313 36.234375 27.47265625 C34.78206083 29.26966523 34.40695852 30.74719391 34 33 C33.34 33 32.68 33 32 33 C31.67 33.66 31.34 34.32 31 35 C29.69084721 36.03145371 28.35917857 37.03542166 27 38 C27.33 36.68 27.66 35.36 28 34 C27.01 34 26.02 34 25 34 C24.34 34.66 23.68 35.32 23 36 C21.68252676 36.69748583 20.35085807 37.36959957 19 38 C20.2065625 38.86625 20.2065625 38.86625 21.4375 39.75 C23.97866739 41.98126893 24.65120368 42.74456771 25 46 C23.7625 46.04125 22.525 46.0825 21.25 46.125 C20.55390625 46.14820313 19.8578125 46.17140625 19.140625 46.1953125 C16.41786847 45.94688581 15.19736579 45.68552958 13 44 C11.6900971 41.32038129 10.6263373 38.79254393 9.625 36 C9.32972412 35.20416504 9.03444824 34.40833008 8.73022461 33.58837891 C7.80290223 31.06481338 6.90019841 28.53335319 6 26 C5.70206543 25.18112305 5.40413086 24.36224609 5.09716797 23.51855469 C4.23551383 21.14292607 3.39489192 18.76102252 2.5625 16.375 C2.30355957 15.65441406 2.04461914 14.93382812 1.77783203 14.19140625 C1.54306152 13.49660156 1.30829102 12.80179688 1.06640625 12.0859375 C0.7561853 11.1894751 0.7561853 11.1894751 0.43969727 10.27490234 C-0.21085238 6.90909357 0 3.42810203 0 0 Z " fill="#FCB01F" transform="translate(41,44)"/>
<path d="M0 0 C2.1953125 0.44140625 2.1953125 0.44140625 4.6953125 3.00390625 C5.06011719 3.55433594 5.42492187 4.10476562 5.80078125 4.671875 C7.57496568 6.92315104 9.63893256 8.21382029 12.0078125 9.81640625 C16.02589138 12.79005072 16.02589138 12.79005072 16.7734375 15.6640625 C16.7578125 17.87890625 16.7578125 17.87890625 16.1953125 21.44140625 C15.2053125 21.44140625 14.2153125 21.44140625 13.1953125 21.44140625 C12.7003125 22.92640625 12.7003125 22.92640625 12.1953125 24.44140625 C-1.6646875 24.44140625 -15.5246875 24.44140625 -29.8046875 24.44140625 C-25.48360791 19.40014673 -21.13886233 14.47872824 -16.6171875 9.62890625 C-16.00166016 8.96181641 -15.38613281 8.29472656 -14.75195312 7.60742188 C-14.15705078 6.96869141 -13.56214844 6.32996094 -12.94921875 5.671875 C-12.41659424 5.09848389 -11.88396973 4.52509277 -11.33520508 3.93432617 C-7.66256924 0.35190981 -4.90774861 -0.11835407 0 0 Z " fill="#E86C8F" transform="translate(127.8046875,19.55859375)"/>
<path d="M0 0 C2.2734375 1.5390625 2.2734375 1.5390625 4.375 3.625 C5.08398438 4.29789063 5.79296875 4.97078125 6.5234375 5.6640625 C8 8 8 8 8.0078125 11 C6.79447611 14.61179203 5.41576002 15.95419925 2.5 18.375 C1.14841797 19.51388672 1.14841797 19.51388672 -0.23046875 20.67578125 C-1.14441406 21.44277344 -2.05835937 22.20976563 -3 23 C-5.30497885 25.18195015 -7.60772789 27.36541165 -9.89453125 29.56640625 C-12.54510464 31.37115659 -13.8540098 31.56568278 -17 31 C-19.01953125 29.42578125 -19.01953125 29.42578125 -20.8125 27.3125 C-21.41707031 26.62800781 -22.02164063 25.94351563 -22.64453125 25.23828125 C-24.30601336 22.49468111 -24.55705676 21.15501173 -24 18 C-22.3203125 15.76171875 -22.3203125 15.76171875 -20.125 13.6875 C-19.40570313 12.99011719 -18.68640625 12.29273437 -17.9453125 11.57421875 C-16 10 -16 10 -14 10 C-13.67 9.01 -13.34 8.02 -13 7 C-11.328125 5.17578125 -11.328125 5.17578125 -9.25 3.3125 C-8.57453125 2.68988281 -7.8990625 2.06726562 -7.203125 1.42578125 C-4.48221859 -0.33508904 -3.18479448 -0.55064204 0 0 Z " fill="#60262E" transform="translate(100,54)"/>
<path d="M0 0 C0 0.66 0 1.32 0 2 C0.99 2 1.98 2 3 2 C5.61075691 6.55047591 5.81675631 10.86494794 5 16 C3.31712073 19.12177233 1.2172593 21.39137035 -2 23 C-7.97272703 23.60739597 -10.91734342 22.97783269 -15.65234375 19.2890625 C-18.01778812 17.02646354 -18.25803852 14.97210962 -18.4375 11.8125 C-18.34215359 7.27987845 -17.26690157 4.52768184 -14.1328125 1.2421875 C-9.81439145 -1.27293685 -4.81343835 -0.49069032 0 0 Z " fill="#FCAF20" transform="translate(108,5)"/>
<path d="M0 0 C0 3 0 3 -1.3125 4.625 C-3 6 -3 6 -6 7 C-6.33 7.66 -6.66 8.32 -7 9 C-13.36474158 11.09305353 -19.30696854 11.27926456 -25.96484375 11.23046875 C-26.99758926 11.23001053 -28.03033478 11.22955231 -29.09437561 11.2290802 C-31.26857662 11.22607244 -33.44277575 11.21823067 -35.61694336 11.20581055 C-38.9237441 11.18757585 -42.2302636 11.18530107 -45.53710938 11.18554688 C-47.65885656 11.1806297 -49.78060187 11.17480051 -51.90234375 11.16796875 C-52.88073715 11.16685593 -53.85913055 11.1657431 -54.86717224 11.16459656 C-68.79139485 11.06953505 -68.79139485 11.06953505 -75 9 C-75 8.34 -75 7.68 -75 7 C-77.53884453 8.15565651 -77.53884453 8.15565651 -80 10 C-80.97610842 12.54051214 -80.97610842 12.54051214 -81 15 C-79.95888882 16.26513396 -79.95888882 16.26513396 -77.65625 16.11352539 C-76.6146875 16.10828857 -75.573125 16.10305176 -74.5 16.09765625 C-73.31946045 16.09435303 -72.1389209 16.0910498 -70.92260742 16.08764648 C-69.62814697 16.07934814 -68.33368652 16.0710498 -67 16.0625 C-65.64884619 16.05808695 -64.29769031 16.05427235 -62.9465332 16.05102539 C-57.91856534 16.03766928 -52.8906566 16.01403352 -47.86273193 15.98962402 C-42.97099665 15.96619225 -38.07928163 15.94776916 -33.1875 15.9375 C-32.16005173 15.93521896 -32.16005173 15.93521896 -31.11184692 15.93289185 C-18.05833571 15.91419468 -5.03598539 16.32439276 8 17 C4.21684328 19.52210448 1.19600889 19.29556509 -3.1875 19.29052734 C-4.4391394 19.30060318 -4.4391394 19.30060318 -5.71606445 19.31088257 C-8.47743666 19.32989854 -11.23856638 19.33378827 -14 19.3359375 C-15.91666769 19.34236186 -17.83333439 19.34908995 -19.75 19.35610962 C-23.76825231 19.36809063 -27.78641858 19.37178949 -31.8046875 19.37060547 C-36.9600248 19.37040199 -42.11481262 19.39773029 -47.27001953 19.43214989 C-51.22821602 19.45435608 -55.18627883 19.45844498 -59.14453125 19.45738602 C-61.04559222 19.45975046 -62.94665642 19.46862112 -64.84765625 19.48405075 C-67.5029994 19.50358842 -70.15713858 19.4979219 -72.8125 19.48583984 C-73.60116455 19.49707886 -74.3898291 19.50831787 -75.20239258 19.51989746 C-80.51769629 19.45825853 -80.51769629 19.45825853 -82.9765625 17.12197876 C-84.30925142 14.3588031 -84.66448368 13.02709232 -84 10 C-81.25 7.125 -81.25 7.125 -78 5 C-75.875 5.125 -75.875 5.125 -74 6 C-70.77179225 6.97842069 -67.72768829 7.19220299 -64.36328125 7.31640625 C-63.24050781 7.35870361 -62.11773437 7.40100098 -60.9609375 7.44458008 C-54.6410137 7.64884421 -48.3210721 7.83495473 -42 8 C-40.82228027 8.03544922 -39.64456055 8.07089844 -38.43115234 8.10742188 C-19.14965927 9.0072038 -19.14965927 9.0072038 -1.75 1.75 C-1.1725 1.1725 -0.595 0.595 0 0 Z " fill="#060202" transform="translate(130,93)"/>
<path d="M0 0 C0.33 0.99 0.66 1.98 1 3 C1.66 3 2.32 3 3 3 C5.31318757 5.31318757 5.99322127 6.15808116 6.01953125 9.42578125 C5.7128178 13.7024084 5.30429974 17.28074607 3.625 21.25 C-0.67012025 24.1134135 -5.09636984 22.85390801 -10 22 C-10 21.34 -10 20.68 -10 20 C-10.99 19.67 -11.98 19.34 -13 19 C-15.01026881 14.97946238 -14.74017152 10.34927232 -14 6 C-10.55643388 0.61495743 -6.27341346 -0.76817308 0 0 Z " fill="#DA881E" transform="translate(18,109)"/>
<path d="M0 0 C3.14804643 0.91534552 4.40384164 2.82257785 5.98828125 5.578125 C4.60998241 9.75748277 2.72909561 12.24336527 -0.38671875 15.328125 C-1.54300781 16.49601562 -1.54300781 16.49601562 -2.72265625 17.6875 C-4.94222188 19.52072486 -6.20396668 20.19350143 -9.01171875 20.578125 C-10.21722169 19.36660958 -11.40064622 18.13309611 -12.57421875 16.890625 C-13.23550781 16.20613281 -13.89679688 15.52164063 -14.578125 14.81640625 C-16.01171875 12.578125 -16.01171875 12.578125 -15.9453125 10.046875 C-13.35789441 3.20483219 -7.17007594 -0.54487624 0 0 Z " fill="#69C1D1" transform="translate(128.01171875,19.421875)"/>
<path d="M0 0 C0.99 0 1.98 0 3 0 C3 0.99 3 1.98 3 3 C3.66 3 4.32 3 5 3 C5.99 6.465 5.99 6.465 7 10 C7.88042969 10.01417969 8.76085937 10.02835938 9.66796875 10.04296875 C20.33377252 10.48096513 20.33377252 10.48096513 23.1875 13.5 C23.785625 14.325 24.38375 15.15 25 16 C25.66 16.33 26.32 16.66 27 17 C27 17.66 27 18.32 27 19 C27.66 19 28.32 19 29 19 C29 19.66 29 20.32 29 21 C30.485 21.495 30.485 21.495 32 22 C31.67 22.66 31.34 23.32 31 24 C27.81293058 22.56438314 25.37830895 20.79733671 22.75 18.5 C22.04359375 17.8915625 21.3371875 17.283125 20.609375 16.65625 C19 15 19 15 19 13 C12.8059532 12.90009602 9.66810551 13.78156908 5 17.9375 C0.77494677 22.05709168 -3.20565091 26.39484587 -7.08984375 30.8359375 C-7.72019531 31.55007812 -8.35054688 32.26421875 -9 33 C-9.41188065 33.53260941 -9.82376129 34.06521881 -10.24812317 34.6139679 C-12.79872048 36.63192355 -14.71744733 36.36051064 -17.94018555 36.34057617 C-19.16122482 36.34034958 -20.3822641 36.34012299 -21.64030457 36.33988953 C-23.61852959 36.31666374 -23.61852959 36.31666374 -25.63671875 36.29296875 C-27.00006138 36.28737243 -28.36341004 36.2831025 -29.72676086 36.28010559 C-33.31243592 36.26865949 -36.89774554 36.23919486 -40.48327637 36.20599365 C-44.1430975 36.17528739 -47.80297777 36.1615991 -51.46289062 36.14648438 C-58.64209356 36.11432449 -65.82099554 36.06313153 -73 36 C-72.67 35.01 -72.34 34.02 -72 33 C-72 33.66 -72 34.32 -72 35 C-64.46252028 35.07815973 -56.92616863 35.10716822 -49.38837528 35.07515812 C-45.88712576 35.06179721 -42.38753806 35.06472959 -38.88647461 35.10620117 C-34.85167845 35.15325473 -30.82012499 35.12709485 -26.78515625 35.09765625 C-24.91900414 35.13452293 -24.91900414 35.13452293 -23.01515198 35.1721344 C-16.32602591 35.06254582 -12.59260184 34.37468908 -7.70092773 29.61889648 C-5.38476933 27.0004122 -4.1092142 25.32764261 -3 22 C-6.63 22 -10.26 22 -14 22 C-14.495 21.01 -14.495 21.01 -15 20 C-14.00419922 20.06960937 -14.00419922 20.06960937 -12.98828125 20.140625 C-7.17622796 20.41467274 -7.17622796 20.41467274 -1.9375 18.125 C0.92195902 14.98881914 1.13732166 13.27739972 1.125 9.125 C1.12757812 8.26132813 1.13015625 7.39765625 1.1328125 6.5078125 C1.01023921 4.19334029 0.64966445 2.21710884 0 0 Z " fill="#564D4B" transform="translate(111,7)"/>
<path d="M0 0 C2.36999926 3.55499889 2.92524733 5.73909778 3 10 C0.6875 12.25 0.6875 12.25 -2 14 C-4.63971343 17.95957014 -5.06108799 21.28095286 -5 26 C-3.93777682 31.0455601 -2.02291628 34.67068997 2 38 C1.690625 38.598125 1.38125 39.19625 1.0625 39.8125 C-0.94386183 43.94324495 -1.10754506 47.13794871 -1.0625 51.6875 C-1.05347656 52.86699219 -1.04445313 54.04648438 -1.03515625 55.26171875 C-1.02355469 56.16535156 -1.01195312 57.06898438 -1 58 C-0.34 58 0.32 58 1 58 C2.70779973 59.62449243 4.37550757 61.29220027 6 63 C7.83653611 64.83653611 10.65792133 64.21628138 13.125 64.25 C18.58938104 64.22595432 22.25139926 63.65038181 27 61 C26.8125 62.875 26.8125 62.875 26 65 C21.6542791 67.37420659 17.39035455 67.39974962 12.5625 67.4375 C11.82451172 67.47037109 11.08652344 67.50324219 10.32617188 67.53710938 C6.27944574 67.57667736 3.76994332 67.22981609 0.578125 64.6328125 C-3.98968204 59.96811258 -5.69906921 56.12968021 -6.3125 49.75 C-5.9262625 45.11515001 -4.30901625 41.96862168 -2 38 C-2.99 37.67 -3.98 37.34 -5 37 C-6.6875 33.9375 -6.6875 33.9375 -8 31 C-8.33 31 -8.66 31 -9 31 C-9.71488959 25.86669562 -10.02072134 21.67380032 -7.25390625 17.13671875 C-5.79752509 15.30131504 -4.32878446 13.4756485 -2.84765625 11.66015625 C-0.10808236 7.71586487 0 4.729923 0 0 Z M1 6 C2 8 2 8 2 8 Z M-5 47 C-5 48.98 -5 50.96 -5 53 C-4.67 53 -4.34 53 -4 53 C-4 51.02 -4 49.04 -4 47 C-4.33 47 -4.66 47 -5 47 Z M-4 55 C-3 57 -3 57 -3 57 Z " fill="#47393B" transform="translate(42,81)"/>
<path d="M0 0 C1.39456452 0.00667256 2.78911118 0.01863093 4.18359375 0.03515625 C5.2499707 0.04192383 5.2499707 0.04192383 6.33789062 0.04882812 C8.09899388 0.06064761 9.86005411 0.07858362 11.62109375 0.09765625 C12.11609375 1.58265625 12.11609375 1.58265625 12.62109375 3.09765625 C11.63109375 3.09765625 10.64109375 3.09765625 9.62109375 3.09765625 C9.62109375 2.43765625 9.62109375 1.77765625 9.62109375 1.09765625 C2.40765336 0.9632112 2.40765336 0.9632112 -4.2890625 3.18359375 C-6.90025341 5.93942789 -7.75940211 8.86990278 -8.06640625 12.53515625 C-7.7728606 16.87229326 -6.44546919 19.65877854 -3.4453125 22.7890625 C0.52498171 25.30333199 5.03732383 25.15474947 9.62109375 25.09765625 C8.84653663 30.01714306 5.93382858 32.81850271 2.44168091 36.17477417 C-2.75115478 39.71489193 -8.07475008 39.20392187 -14.1640625 38.9765625 C-15.46089462 38.96382797 -16.75772675 38.95109344 -18.09385681 38.93797302 C-21.51322582 38.90388867 -24.92905823 38.8157536 -28.3470459 38.71563721 C-31.84611166 38.6229447 -35.345759 38.58233407 -38.84570312 38.53710938 C-45.69154138 38.44108707 -52.5350533 38.28784447 -59.37890625 38.09765625 C-59.70890625 35.78765625 -60.03890625 33.47765625 -60.37890625 31.09765625 C-59.71890625 30.76765625 -59.05890625 30.43765625 -58.37890625 30.09765625 C-58.04890625 31.41765625 -57.71890625 32.73765625 -57.37890625 34.09765625 C-49.4953732 34.22442704 -41.61210294 34.3119962 -33.7277832 34.37231445 C-31.04552171 34.39463619 -28.36385205 34.42942419 -25.68188477 34.47485352 C-21.8268137 34.5355015 -17.97264855 34.56386752 -14.1171875 34.5859375 C-12.91806229 34.61174393 -11.71893707 34.63755035 -10.48347473 34.66413879 C-3.6747805 34.89041478 -3.6747805 34.89041478 1.91723633 31.56713867 C2.76064575 30.34474487 2.76064575 30.34474487 3.62109375 29.09765625 C1.64109375 28.43765625 -0.33890625 27.77765625 -2.37890625 27.09765625 C-2.37890625 26.43765625 -2.37890625 25.77765625 -2.37890625 25.09765625 C-3.36890625 25.09765625 -4.35890625 25.09765625 -5.37890625 25.09765625 C-9.25253644 21.22402606 -9.73185374 17.9711948 -9.94140625 12.53515625 C-9.75255703 5.63429119 -9.75255703 5.63429119 -6.94140625 2.84765625 C-6.09578125 2.27015625 -5.25015625 1.69265625 -4.37890625 1.09765625 C-3.37890625 0.09765625 -3.37890625 0.09765625 0 0 Z M-57.37890625 36.09765625 C-57.37890625 36.42765625 -57.37890625 36.75765625 -57.37890625 37.09765625 C-39.88890625 37.09765625 -22.39890625 37.09765625 -4.37890625 37.09765625 C-4.37890625 36.76765625 -4.37890625 36.43765625 -4.37890625 36.09765625 C-21.86890625 36.09765625 -39.35890625 36.09765625 -57.37890625 36.09765625 Z " fill="#151010" transform="translate(98.37890625,3.90234375)"/>
<path d="M0 0 C0.99 0 1.98 0 3 0 C5 2 5 2 5.0625 5.5625 C5.041875 6.696875 5.02125 7.83125 5 9 C5.33 9.33 5.66 9.66 6 10 C6.12682623 12.47163686 6.18520251 14.90290611 6.1875 17.375 C6.19974609 18.06078125 6.21199219 18.7465625 6.22460938 19.453125 C6.23552331 23.19296797 6.1266842 24.8099737 4 28 C3.61500109 29.65549531 3.27206865 31.3222433 3 33 C2.01 33 1.02 33 0 33 C-0.33 30.69 -0.66 28.38 -1 26 C-2.32 25.67 -3.64 25.34 -5 25 C-4.37460064 13.89376997 -4.37460064 13.89376997 -1 10 C-0.01 10 0.98 10 2 10 C1.855625 8.72125 1.71125 7.4425 1.5625 6.125 C1.44068359 5.04605469 1.44068359 5.04605469 1.31640625 3.9453125 C1.08707039 1.92595684 1.08707039 1.92595684 0 0 Z " fill="#57292F" transform="translate(142,31)"/>
<path d="M0 0 C0.66 0.33 1.32 0.66 2 1 C1.484375 1.350625 0.96875 1.70125 0.4375 2.0625 C-1.38851048 4.08522165 -1.38851048 4.08522165 -0.75 7.625 C-0.35631915 10.82263935 -0.35631915 10.82263935 1 12 C3.64651343 12.12509834 6.26822219 12.18605995 8.91625977 12.20532227 C9.74545929 12.21522186 10.57465881 12.22512146 11.4289856 12.23532104 C14.18309629 12.2670312 16.93722426 12.29173088 19.69140625 12.31640625 C21.59570273 12.33696757 23.49999455 12.35796382 25.40428162 12.37937927 C30.42662806 12.43468485 35.44901627 12.48405656 40.47143555 12.53222656 C45.59232315 12.58237979 50.7131498 12.63809803 55.83398438 12.69335938 C65.8892709 12.80104467 75.94461025 12.90246645 86 13 C86 13.33 86 13.66 86 14 C69.07663805 14.95365217 52.16278924 15.27907125 35.21630859 15.35009766 C32.2895734 15.36364965 29.36350076 15.39195857 26.43701172 15.43212891 C22.84541299 15.4813327 19.25443109 15.50619132 15.66250992 15.51332474 C13.65709173 15.5232402 11.65184061 15.55744077 9.646698 15.59213257 C8.43668121 15.58928253 7.22666443 15.5864325 5.97998047 15.58349609 C4.9182663 15.59158295 3.85655212 15.5996698 2.76266479 15.60800171 C0 15 0 15 -2.34249878 12.69009399 C-4.50246449 9.18450938 -4.59941229 7.04603297 -4 3 C-2 1.0625 -2 1.0625 0 0 Z " fill="#443839" transform="translate(48,99)"/>
<path d="M0 0 C2.4375 1.5625 2.4375 1.5625 4 4 C3.93913078 7.46954545 3.6274029 9.91947278 1.875 12.9375 C-1.17468171 14.66565297 -3.58518389 14.42685201 -7 14 C-9.62541413 11.79803976 -9.9445448 10.38026421 -10.4375 7 C-10 4 -10 4 -8.375 1.625 C-5.28813568 -0.48706506 -3.6717087 -0.61195145 0 0 Z " fill="#F4901E" transform="translate(122,124)"/>
<path d="M0 0 C2.3125 1 2.3125 1 4 3 C4.57188443 5.77277298 4.56623726 8.22659301 4 11 C1.78300364 13.7286109 0.41355329 13.94936082 -3.0625 14.375 C-6 14 -6 14 -7.875 13 C-9.68498652 9.78224619 -9.67345584 6.59176448 -9 3 C-6.38322654 -0.10136113 -3.9502835 -0.59254252 0 0 Z " fill="#F18F1F" transform="translate(58,124)"/>
<path d="M0 0 C0.33 0.99 0.66 1.98 1 3 C1.66 3 2.32 3 3 3 C5.31318757 5.31318757 5.99322127 6.15808116 6.01953125 9.42578125 C5.7128178 13.7024084 5.30429974 17.28074607 3.625 21.25 C-0.67012025 24.1134135 -5.09636984 22.85390801 -10 22 C-10 21.34 -10 20.68 -10 20 C-10.99 19.67 -11.98 19.34 -13 19 C-15.01026881 14.97946238 -14.74017152 10.34927232 -14 6 C-10.55643388 0.61495743 -6.27341346 -0.76817308 0 0 Z M-10.5 5.625 C-12.47945017 8.75912943 -12.58503961 10.34350241 -12 14 C-10.67914441 17.48134876 -10.67914441 17.48134876 -8 20 C-5.1812134 20.76245867 -2.83198263 20.66737296 0 20 C2.6469872 18.60314994 2.6469872 18.60314994 4 16 C4.59172793 11.93187045 4.37276489 9.72999792 2.5 6.0625 C-0.54254966 3.55239653 -2.24066492 3.31605336 -6.09375 3.58203125 C-8.21271234 3.92917392 -8.21271234 3.92917392 -10.5 5.625 Z " fill="#382F29" transform="translate(18,109)"/>
<path d="M0 0 C1.32 0.66 2.64 1.32 4 2 C3.67 2.33 3.34 2.66 3 3 C3.33 3 3.66 3 4 3 C4.28169014 11.45070423 4.28169014 11.45070423 2 15 C1.7525 15.639375 1.505 16.27875 1.25 16.9375 C-0.61730295 20.01854987 -2.90170446 22.21402428 -6 24 C-9.05037338 24.63528731 -11.95978761 24.56730995 -15.0625 24.4375 C-15.85205078 24.43169922 -16.64160156 24.42589844 -17.45507812 24.41992188 C-23.26846791 24.29809895 -27.16174589 23.3986716 -31.875 19.8125 C-34 17 -34 17 -33.8125 13.1875 C-33.544375 12.135625 -33.27625 11.08375 -33 10 C-30.08121827 13.55329949 -30.08121827 13.55329949 -29.625 16.0625 C-29.13672732 18.20943664 -29.13672732 18.20943664 -26.91796875 19.578125 C-23.3844114 21.29996553 -20.60200631 21.50457914 -16.6875 21.6875 C-15.43324219 21.75324219 -14.17898437 21.81898438 -12.88671875 21.88671875 C-11.93410156 21.92410156 -10.98148438 21.96148437 -10 22 C-10 21.34 -10 20.68 -10 20 C-9.21625 19.7525 -8.4325 19.505 -7.625 19.25 C-4.67682892 17.84610901 -4.0975223 16.99324263 -3 14 C-2.01 14 -1.02 14 0 14 C0 9.38 0 4.76 0 0 Z " fill="#302426" transform="translate(135,124)"/>
<path d="M0 0 C2.875 -0.125 2.875 -0.125 6 0 C6.66 0.66 7.32 1.32 8 2 C10.71034638 2.33232684 10.71034638 2.33232684 13.91845703 2.31884766 C15.15959259 2.33871735 16.40072815 2.35858704 17.67947388 2.37905884 C19.03891827 2.39093611 20.39836455 2.40259892 21.7578125 2.4140625 C23.14502118 2.43276729 24.5322184 2.45234019 25.91940308 2.4727478 C29.57225804 2.52414812 33.22514994 2.56373125 36.87817383 2.60089111 C40.60507397 2.64088148 44.33181949 2.69199639 48.05859375 2.7421875 C55.37228988 2.83904019 62.6860606 2.92341475 70 3 C66.6191548 5.2538968 65.466081 5.25243024 61.50634766 5.25878906 C60.38152985 5.26509338 59.25671204 5.27139771 58.09780884 5.27789307 C56.2743544 5.27182037 56.2743544 5.27182037 54.4140625 5.265625 C52.54045547 5.26849518 52.54045547 5.26849518 50.6289978 5.27142334 C47.98429571 5.27278562 45.33996205 5.27008859 42.6953125 5.26074219 C39.31371558 5.24937104 35.93243696 5.25589394 32.55085182 5.26788712 C29.31774418 5.27687685 26.08467431 5.27057023 22.8515625 5.265625 C21.63997467 5.26967346 20.42838684 5.27372192 19.18008423 5.27789307 C18.0489621 5.27158875 16.91783997 5.26528442 15.75244141 5.25878906 C14.7599942 5.25719788 13.767547 5.25560669 12.74502563 5.25396729 C9.82018971 4.98336412 7.68496741 4.1494925 5 3 C2.29113059 2.83201738 2.29113059 2.83201738 0 3 C0 2.01 0 1.02 0 0 Z " fill="#48393B" transform="translate(50,96)"/>
<path d="M0 0 C0.66 1.32 1.32 2.64 2 4 C20.48 4.33 38.96 4.66 58 5 C58.495 6.485 58.495 6.485 59 8 C39.53 8 20.06 8 0 8 C-0.33 5.69 -0.66 3.38 -1 1 C-0.67 0.67 -0.34 0.34 0 0 Z M2 6 C2 6.33 2 6.66 2 7 C19.49 7 36.98 7 55 7 C55 6.67 55 6.34 55 6 C37.51 6 20.02 6 2 6 Z " fill="#110E0E" transform="translate(39,34)"/>
<path d="M0 0 C1.68756133 0.96432076 3.3497306 1.9731657 5 3 C5.928125 3.556875 6.85625 4.11375 7.8125 4.6875 C10.28136753 7.29744568 10.3125 7.82838406 10.3125 11.25 C10.209375 12.4875 10.10625 13.725 10 15 C9.01 15 8.02 15 7 15 C6.67 15.66 6.34 16.32 6 17 C6 16.01 6 15.02 6 14 C5.01 14.33 4.02 14.66 3 15 C0.19185815 14.19767376 -2.38791536 13.30604232 -5 12 C-5 11.34 -5 10.68 -5 10 C-3.35 9.67 -1.7 9.34 0 9 C0.33 6.69 0.66 4.38 1 2 C0.34 1.67 -0.32 1.34 -1 1 C-0.67 0.67 -0.34 0.34 0 0 Z " fill="#CA5C72" transform="translate(134,26)"/>
<path d="M0 0 C-3.26123419 2.17415613 -4.11432628 2.24802646 -7.87890625 2.23046875 C-9.44378784 2.22853516 -9.44378784 2.22853516 -11.0402832 2.2265625 C-12.20261475 2.21367188 -13.36494629 2.20078125 -14.5625 2.1875 C-15.78219482 2.18105469 -17.00188965 2.17460938 -18.25854492 2.16796875 C-39.50736868 2.02580336 -60.7565736 1.47355229 -82 1 C-82 0.67 -82 0.34 -82 0 C-54.62386337 -0.76227278 -27.36664018 -1.2488295 0 0 Z " fill="#120A0B" transform="translate(138,110)"/>
<path d="M0 0 C0.33 0.66 0.66 1.32 1 2 C3.57951874 2.69093896 3.57951874 2.69093896 6.5625 3.125 C7.57441406 3.29257812 8.58632812 3.46015625 9.62890625 3.6328125 C10.41136719 3.75398438 11.19382813 3.87515625 12 4 C12 5.32 12 6.64 12 8 C-1.86 8 -15.72 8 -30 8 C-30 7.67 -30 7.34 -30 7 C-29.14619751 6.97812622 -29.14619751 6.97812622 -28.27514648 6.95581055 C-25.66196172 6.88070835 -23.04996901 6.78425811 -20.4375 6.6875 C-19.09461914 6.65366211 -19.09461914 6.65366211 -17.72460938 6.61914062 C-11.3649808 6.36289185 -6.03450445 5.64295549 -1.0625 1.3125 C-0.5365625 0.6628125 -0.5365625 0.6628125 0 0 Z " fill="#EA6C69" transform="translate(128,36)"/>
<path d="M0 0 C3.0534135 -0.29359745 5.95743422 -0.4451258 9 0 C11.5625 2.5 11.5625 2.5 13 5 C11.62170116 9.17935777 9.74081436 11.66524027 6.625 14.75 C5.46871094 15.91789062 5.46871094 15.91789062 4.2890625 17.109375 C2.06949687 18.94259986 0.80775207 19.61537643 -2 20 C-2.66 19.01 -3.32 18.02 -4 17 C-2.35 17 -0.7 17 1 17 C1.67119549 15.5437455 2.33681807 14.08492133 3 12.625 C3.37125 11.81289063 3.7425 11.00078125 4.125 10.1640625 C5.12495013 8.08001567 5.12495013 8.08001567 5 6 C5 5.01 5 4.02 5 3 C2.03 2.505 2.03 2.505 -1 2 C-0.67 1.34 -0.34 0.68 0 0 Z " fill="#75A9BC" transform="translate(121,20)"/>
<path d="M0 0 C0 0.66 0 1.32 0 2 C0.99 2 1.98 2 3 2 C3.33 3.32 3.66 4.64 4 6 C-0.05606165 5.53199289 -3.46588679 5.12046792 -7 3 C-7.33 3.66 -7.66 4.32 -8 5 C-8.66 4.67 -9.32 4.34 -10 4 C-10 4.99 -10 5.98 -10 7 C-11.65 7.33 -13.3 7.66 -15 8 C-15 11.63 -15 15.26 -15 19 C-18.46319569 15.53680431 -18.46319569 15.53680431 -18.5625 11.75 C-18.36564226 7.29518223 -17.21408913 4.47231808 -14.1328125 1.2421875 C-9.81439145 -1.27293685 -4.81343835 -0.49069032 0 0 Z " fill="#E8A432" transform="translate(108,5)"/>
<path d="M0 0 C0.33 0.99 0.66 1.98 1 3 C1.66 3.33 2.32 3.66 3 4 C3.1875 7.375 3.1875 7.375 3 11 C-0.22791555 13.1519437 -1.28400809 13.20086443 -5 13 C-4.67 13.66 -4.34 14.32 -4 15 C-3.87917466 16.66345582 -3.8246206 18.33220591 -3.8125 20 C-3.79832031 20.886875 -3.78414062 21.77375 -3.76953125 22.6875 C-4 25 -4 25 -6 27 C-6.33 21.72 -6.66 16.44 -7 11 C-6.01 10.67 -5.02 10.34 -4 10 C-3.67 9.01 -3.34 8.02 -3 7 C-2.34 7 -1.68 7 -1 7 C-1.33 6.01 -1.66 5.02 -2 4 C-8.27 3.67 -14.54 3.34 -21 3 C-21 2.67 -21 2.34 -21 2 C-19.44539063 1.90912109 -19.44539063 1.90912109 -17.859375 1.81640625 C-16.48957127 1.73196629 -15.11978025 1.64732003 -13.75 1.5625 C-13.06808594 1.52318359 -12.38617188 1.48386719 -11.68359375 1.44335938 C-7.755128 1.19544649 -3.87076415 0 0 0 Z " fill="#3C2A2E" transform="translate(140,111)"/>
<path d="M0 0 C0.99 0 1.98 0 3 0 C3 0.99 3 1.98 3 3 C3.66 3 4.32 3 5 3 C5.66 5.31 6.32 7.62 7 10 C7.88042969 10.01417969 8.76085937 10.02835938 9.66796875 10.04296875 C20.33377252 10.48096513 20.33377252 10.48096513 23.1875 13.5 C23.785625 14.325 24.38375 15.15 25 16 C25.66 16.33 26.32 16.66 27 17 C27 17.66 27 18.32 27 19 C27.66 19 28.32 19 29 19 C29 19.66 29 20.32 29 21 C29.99 21.33 30.98 21.66 32 22 C31.67 22.66 31.34 23.32 31 24 C27.81293058 22.56438314 25.37830895 20.79733671 22.75 18.5 C22.04359375 17.8915625 21.3371875 17.283125 20.609375 16.65625 C19 15 19 15 19 13 C16.68690295 13.11341637 14.37449815 13.24103807 12.0625 13.375 C10.77472656 13.44460937 9.48695312 13.51421875 8.16015625 13.5859375 C7.11730469 13.72257812 6.07445313 13.85921875 5 14 C4.67 14.66 4.34 15.32 4 16 C3.67 12.04 3.34 8.08 3 4 C2.34 4 1.68 4 1 4 C0.67 2.68 0.34 1.36 0 0 Z " fill="#211B1B" transform="translate(111,7)"/>
<path d="M0 0 C0.22174933 1.45635371 0.42698698 2.91522956 0.625 4.375 C0.74101562 5.18710938 0.85703125 5.99921875 0.9765625 6.8359375 C0.98429687 7.55007812 0.99203125 8.26421875 1 9 C-1 11 -1 11 -4 11.25 C-7 11 -7 11 -9 9 C-9.54782609 2.97391304 -9.54782609 2.97391304 -7.875 0 C-5.06863762 -1.49672661 -2.99840718 -0.73294398 0 0 Z " fill="#F69418" transform="translate(20,117)"/>
<path d="M0 0 C1.00933594 -0.01836914 1.00933594 -0.01836914 2.0390625 -0.03710938 C5.74361843 -0.04804802 8.47990643 0.14722135 11.625 2.1875 C11.625 3.1775 11.625 4.1675 11.625 5.1875 C12.615 5.1875 13.605 5.1875 14.625 5.1875 C18.90295571 9.46545571 20.49482347 14.12835156 20.75 20.125 C20.70875 20.805625 20.6675 21.48625 20.625 22.1875 C18.3120518 19.8745518 18.12919025 18.70845125 17.5 15.5625 C17.33242188 14.74523438 17.16484375 13.92796875 16.9921875 13.0859375 C16.87101562 12.45945312 16.74984375 11.83296875 16.625 11.1875 C15.635 11.1875 14.645 11.1875 13.625 11.1875 C13.026875 10.40375 12.42875 9.62 11.8125 8.8125 C9.0956971 5.55233652 7.76729511 5.07513467 3.625 4.1875 C0.46243667 3.90929262 -2.69227184 3.68726522 -5.86328125 3.53125 C-6.69214844 3.4178125 -7.52101563 3.304375 -8.375 3.1875 C-8.705 2.5275 -9.035 1.8675 -9.375 1.1875 C-6.37200345 -0.31399828 -3.29023309 0.00311575 0 0 Z M-6.375 1.1875 C-6.375 1.5175 -6.375 1.8475 -6.375 2.1875 C-2.415 2.1875 1.545 2.1875 5.625 2.1875 C5.625 1.8575 5.625 1.5275 5.625 1.1875 C1.665 1.1875 -2.295 1.1875 -6.375 1.1875 Z " fill="#332C2C" transform="translate(15.375,6.8125)"/>
<path d="M0 0 C2.36999926 3.55499889 2.92524733 5.73909778 3 10 C0.75 12.0625 0.75 12.0625 -2 14 C-3.80979141 17.11662908 -3.80979141 17.11662908 -5 20 C-5.66 20 -6.32 20 -7 20 C-6.08433267 26.77111891 -5.03098483 31.49098739 -1 37 C-1 38.32 -1 39.64 -1 41 C-1.66 40.67 -2.32 40.34 -3 40 C-2.67 39.34 -2.34 38.68 -2 38 C-2.99 37.67 -3.98 37.34 -5 37 C-6.6875 33.9375 -6.6875 33.9375 -8 31 C-8.33 31 -8.66 31 -9 31 C-9.71488959 25.86669562 -10.02072134 21.67380032 -7.25390625 17.13671875 C-5.79752509 15.30131504 -4.32878446 13.4756485 -2.84765625 11.66015625 C-0.10808236 7.71586487 0 4.729923 0 0 Z M1 6 C2 8 2 8 2 8 Z " fill="#0F0A0A" transform="translate(42,81)"/>
<path d="M0 0 C1.54296875 1.16796875 1.54296875 1.16796875 3 3 C2.92578125 5.48828125 2.92578125 5.48828125 2.3125 8.3125 C2.10496094 9.28445312 1.89742187 10.25640625 1.68359375 11.2578125 C0.94122041 14.23579011 0.08647458 17.12860289 -1 20 C-1.66 20 -2.32 20 -3 20 C-3.33 21.98 -3.66 23.96 -4 26 C-4.66 25.67 -5.32 25.34 -6 25 C-5.76919007 16.08234348 -2.99681008 8.29375483 0 0 Z M0 7 C1 9 1 9 1 9 Z M-1 12 C0 14 0 14 0 14 Z " fill="#382C2E" transform="translate(140,62)"/>
<path d="M0 0 C0 2.31 0 4.62 0 7 C-0.54269531 7.18175781 -1.08539063 7.36351562 -1.64453125 7.55078125 C-2.35996094 7.80214844 -3.07539063 8.05351563 -3.8125 8.3125 C-4.87404297 8.67794922 -4.87404297 8.67794922 -5.95703125 9.05078125 C-8.16151866 10.07504596 -9.34309768 11.25001328 -11 13 C-16.70961314 15.7816064 -22.80524242 15.18042983 -29 15 C-29 14.67 -29 14.34 -29 14 C-25.37 14 -21.74 14 -18 14 C-18 13.34 -18 12.68 -18 12 C-17.030625 11.690625 -16.06125 11.38125 -15.0625 11.0625 C-10.35290519 9.10177073 -7.33272025 5.54839173 -3.91796875 1.86328125 C-2 0 -2 0 0 0 Z " fill="#E96786" transform="translate(135,28)"/>
<path d="M0 0 C9.9 0 19.8 0 30 0 C30 0.66 30 1.32 30 2 C29.34 2 28.68 2 28 2 C28 5.3 28 8.6 28 12 C27.67 12 27.34 12 27 12 C26.505 7.05 26.505 7.05 26 2 C24.92621094 2.01160156 23.85242188 2.02320312 22.74609375 2.03515625 C21.30989759 2.04454315 19.87369952 2.05364238 18.4375 2.0625 C17.38079102 2.07506836 17.38079102 2.07506836 16.30273438 2.08789062 C11.75975202 2.10882603 7.48215108 1.74800682 3 1 C3 4.63 3 8.26 3 12 C0.67713526 8.51570289 0.91519888 7.07045385 1 3 C0.67 2.01 0.34 1.02 0 0 Z " fill="#150D0E" transform="translate(72,125)"/>
<path d="M0 0 C1.79244141 0.01740234 1.79244141 0.01740234 3.62109375 0.03515625 C5.41740234 0.04869141 5.41740234 0.04869141 7.25 0.0625 C8.17683594 0.07410156 9.10367187 0.08570312 10.05859375 0.09765625 C14.82708978 10.27784081 14.82708978 10.27784081 15.05859375 14.09765625 C14.39859375 14.75765625 13.73859375 15.41765625 13.05859375 16.09765625 C12.72859375 13.78765625 12.39859375 11.47765625 12.05859375 9.09765625 C11.39859375 9.09765625 10.73859375 9.09765625 10.05859375 9.09765625 C10.05859375 7.11765625 10.05859375 5.13765625 10.05859375 3.09765625 C9.29933594 3.12085938 8.54007813 3.1440625 7.7578125 3.16796875 C6.76394531 3.18601562 5.77007812 3.2040625 4.74609375 3.22265625 C3.26689453 3.25746094 3.26689453 3.25746094 1.7578125 3.29296875 C-0.94140625 3.09765625 -0.94140625 3.09765625 -3.94140625 1.09765625 C-2.94140625 0.09765625 -2.94140625 0.09765625 0 0 Z " fill="#110B0C" transform="translate(10.94140625,20.90234375)"/>
<path d="M0 0 C2.12508244 3.18762365 2.5020163 5.26512223 3 9 C3.99 9.33 4.98 9.66 6 10 C8.14175315 13.97168017 9.35306877 17.66920233 8.1875 22.0625 C7.795625 22.701875 7.40375 23.34125 7 24 C4.71334143 21.71334143 4.39719652 20.3919171 3.5625 17.3125 C2.66509408 14.11865532 1.69080325 11.17437066 0.25 8.1875 C-1.0717384 4.81706709 -1.12656256 3.37968769 0 0 Z M5 17 C6 19 6 19 6 19 Z " fill="#292121" transform="translate(34,59)"/>
<path d="M0 0 C1.39456452 0.00667256 2.78911118 0.01863093 4.18359375 0.03515625 C4.89451172 0.03966797 5.60542969 0.04417969 6.33789062 0.04882812 C8.09899388 0.06064761 9.86005411 0.07858362 11.62109375 0.09765625 C11.95109375 1.08765625 12.28109375 2.07765625 12.62109375 3.09765625 C11.63109375 3.09765625 10.64109375 3.09765625 9.62109375 3.09765625 C9.62109375 2.43765625 9.62109375 1.77765625 9.62109375 1.09765625 C2.40765336 0.9632112 2.40765336 0.9632112 -4.2890625 3.18359375 C-6.93596806 5.9771209 -7.74069748 8.88766597 -8.00390625 12.59765625 C-7.75458597 17.50926586 -5.82895471 19.733859 -2.37890625 23.09765625 C-4.75390625 22.78515625 -4.75390625 22.78515625 -7.37890625 22.09765625 C-10.62268112 17.23199394 -10.10548346 11.78205439 -9.37890625 6.09765625 C-7.95810716 3.57292692 -6.82277396 2.76663907 -4.37890625 1.09765625 C-3.37890625 0.09765625 -3.37890625 0.09765625 0 0 Z " fill="#211D1C" transform="translate(98.37890625,3.90234375)"/>
<path d="M0 0 C1.93166016 0.01740234 1.93166016 0.01740234 3.90234375 0.03515625 C5.19269531 0.04417969 6.48304687 0.05320312 7.8125 0.0625 C8.81152344 0.07410156 9.81054688 0.08570313 10.83984375 0.09765625 C10.83984375 0.42765625 10.83984375 0.75765625 10.83984375 1.09765625 C4.40484375 1.59265625 4.40484375 1.59265625 -2.16015625 2.09765625 C-1.50015625 3.74765625 -0.84015625 5.39765625 -0.16015625 7.09765625 C6.76984375 7.59265625 6.76984375 7.59265625 13.83984375 8.09765625 C13.83984375 9.08765625 13.83984375 10.07765625 13.83984375 11.09765625 C13.50984375 10.76765625 13.17984375 10.43765625 12.83984375 10.09765625 C10.69589856 9.99848055 8.54857643 9.96795475 6.40234375 9.97265625 C5.22800781 9.97007813 4.05367187 9.9675 2.84375 9.96484375 C-0.08423715 9.89000079 -0.08423715 9.89000079 -2.16015625 11.09765625 C-2.82015625 10.76765625 -3.48015625 10.43765625 -4.16015625 10.09765625 C-4.18704841 8.61858733 -4.20650246 7.13938142 -4.22265625 5.66015625 C-4.23425781 4.83644531 -4.24585938 4.01273438 -4.2578125 3.1640625 C-4.09664209 -0.24630333 -3.49217455 0.1079164 0 0 Z " fill="#42242B" transform="translate(8.16015625,9.90234375)"/>
<path d="M0 0 C1.06734375 0.34611328 1.06734375 0.34611328 2.15625 0.69921875 C4.07063489 1.06551865 5.98748849 1.41908277 7.90625 1.76171875 C8.89109375 1.93832031 9.8759375 2.11492187 10.890625 2.296875 C11.63828125 2.42964844 12.3859375 2.56242187 13.15625 2.69921875 C13.15625 3.35921875 13.15625 4.01921875 13.15625 4.69921875 C11.71885487 4.72633941 10.28131137 4.74566942 8.84375 4.76171875 C7.64298828 4.77912109 7.64298828 4.77912109 6.41796875 4.796875 C4.15625 4.69921875 4.15625 4.69921875 1.15625 3.69921875 C1.15625 3.03921875 1.15625 2.37921875 1.15625 1.69921875 C-1.36621503 2.72625697 -1.36621503 2.72625697 -3.84375 4.69921875 C-5.21275354 8.27918134 -5.21275354 8.27918134 -5.84375 11.69921875 C-7.84375 9.69921875 -7.84375 9.69921875 -8.34375 7.38671875 C-7.84375 4.69921875 -7.84375 4.69921875 -5.09375 1.82421875 C-1.84375 -0.30078125 -1.84375 -0.30078125 0 0 Z " fill="#110C0C" transform="translate(53.84375,98.30078125)"/>
<path d="M0 0 C0 0.66 0 1.32 0 2 C-0.74765625 1.95359375 -1.4953125 1.9071875 -2.265625 1.859375 C-3.25046875 1.82328125 -4.2353125 1.7871875 -5.25 1.75 C-6.71179688 1.68039063 -6.71179688 1.68039063 -8.203125 1.609375 C-11.07863118 1.8006783 -11.07863118 1.8006783 -13.34375 3.59375 C-15.55251544 6.80271111 -15.40430061 8.89248471 -15.25 12.75 C-15.21390625 13.92046875 -15.1778125 15.0909375 -15.140625 16.296875 C-15.09421875 17.18890625 -15.0478125 18.0809375 -15 19 C-16.89986452 17.3990475 -17.89329844 16.42680626 -18.50390625 13.984375 C-18.61655163 9.68883134 -18.23001523 6.52949846 -15.75 2.9375 C-11.44305157 -1.57751357 -5.77506164 -0.58871988 0 0 Z " fill="#907752" transform="translate(108,5)"/>
<path d="M0 0 C0.33 0 0.66 0 1 0 C1.05406122 1.93719378 1.09282025 3.87481921 1.125 5.8125 C1.14820313 6.89144531 1.17140625 7.97039063 1.1953125 9.08203125 C1 12 1 12 -1 15 C-1.38499891 16.65549531 -1.72793135 18.3222433 -2 20 C-2.99 20 -3.98 20 -5 20 C-4.814375 19.38125 -4.62875 18.7625 -4.4375 18.125 C-3.76313824 15.95839822 -3.76313824 15.95839822 -5 14 C-4.2578125 11.7578125 -4.2578125 11.7578125 -3.125 9.125 C-1.83243369 6.09696004 -0.70393056 3.2201079 0 0 Z " fill="#292122" transform="translate(147,44)"/>
<path d="M0 0 C2.70482125 2.70482125 3.5076736 5.82543681 4.6875 9.375 C5.04424805 10.38433594 5.04424805 10.38433594 5.40820312 11.4140625 C7.46407193 17.53946634 7.46407193 17.53946634 6 21 C2.99382731 17.99382731 3.40414684 15.17618402 3 11 C2.34 11 1.68 11 1 11 C0.1102009 7.69503191 -0.54753044 4.39352169 -1 1 C-0.67 0.67 -0.34 0.34 0 0 Z M0 3 C1 5 1 5 1 5 Z " fill="#120D0D" transform="translate(26,36)"/>
<path d="M0 0 C0.33 0.66 0.66 1.32 1 2 C1.99 2 2.98 2 4 2 C6.5 4.3125 6.5 4.3125 9 7 C9.598125 7.598125 10.19625 8.19625 10.8125 8.8125 C11.204375 9.204375 11.59625 9.59625 12 10 C9.875 10.8125 9.875 10.8125 7 11 C2.74988363 8.16658908 0.43666659 6.02833307 -1 1 C-0.67 0.67 -0.34 0.34 0 0 Z " fill="#352C2D" transform="translate(39,137)"/>
<path d="M0 0 C2.97 0.495 2.97 0.495 6 1 C5.93994409 3.10495964 5.85114641 5.20911435 5.75 7.3125 C5.68039063 9.07013672 5.68039063 9.07013672 5.609375 10.86328125 C5 14 5 14 3.21875 15.90625 C-0.31929282 17.65035562 -3.09728845 17.19513558 -7 17 C-7 16.67 -7 16.34 -7 16 C-5.906875 15.896875 -4.81375 15.79375 -3.6875 15.6875 C-0.17356341 15.24548326 -0.17356341 15.24548326 1.9375 13.875 C3.65536295 10.84347716 3.35276256 8.41003805 3 5 C1.63002843 2.12853006 1.63002843 2.12853006 0 0 Z " fill="#3C342F" transform="translate(18,113)"/>
<path d="M0 0 C1.32 0.66 2.64 1.32 4 2 C3.67 2.33 3.34 2.66 3 3 C3.33 3 3.66 3 4 3 C4.28571429 11.57142857 4.28571429 11.57142857 2 15 C1.01 15 0.02 15 -1 15 C-0.67 14.01 -0.34 13.02 0 12 C0.068991 9.93854893 0.08467727 7.87498599 0.0625 5.8125 C0.05347656 4.72582031 0.04445312 3.63914062 0.03515625 2.51953125 C0.02355469 1.68808594 0.01195312 0.85664062 0 0 Z " fill="#120D0D" transform="translate(135,124)"/>
<path d="M0 0 C-0.54140625 0.21398438 -1.0828125 0.42796875 -1.640625 0.6484375 C-4.8392797 2.48077943 -7.20964484 4.99796606 -9.75 7.625 C-10.50990234 8.3984375 -10.50990234 8.3984375 -11.28515625 9.1875 C-12.52803902 10.45383339 -13.76465276 11.7263144 -15 13 C-15.99 12.67 -16.98 12.34 -18 12 C-17.0409375 11.5978125 -17.0409375 11.5978125 -16.0625 11.1875 C-13.66868314 10.11332248 -13.66868314 10.11332248 -13 7 C-11.328125 5.17578125 -11.328125 5.17578125 -9.25 3.3125 C-8.57453125 2.68988281 -7.8990625 2.06726562 -7.203125 1.42578125 C-4.58640604 -0.26766276 -3.05793267 -0.28333992 0 0 Z " fill="#75372B" transform="translate(100,54)"/>
<path d="M0 0 C2.48076864 2.48076864 2.35091557 3.44218209 2.4375 6.875 C2.38551532 10.87204419 2.37018337 11.61130746 -0.5 14.625 C-1.325 15.07875 -2.15 15.5325 -3 16 C-3.66 15.67 -4.32 15.34 -5 15 C-4.360625 14.38125 -3.72125 13.7625 -3.0625 13.125 C-0.25200287 8.86667102 -0.19440733 5.00598862 0 0 Z " fill="#5A5045" transform="translate(113,11)"/>
<path d="M0 0 C1.59373901 2.39060851 2.65297076 4.30828179 3.6875 6.9375 C3.95949219 7.60652344 4.23148438 8.27554688 4.51171875 8.96484375 C5.0787676 11.32830338 4.76024003 12.7192799 4 15 C0.52094681 11.36280803 -0.4344997 6.88215261 -1 2 C-0.67 1.34 -0.34 0.68 0 0 Z " fill="#0E0A0A" transform="translate(34,59)"/>
<path d="M0 0 C0.66 0.66 1.32 1.32 2 2 C1.625 5.125 1.625 5.125 1 8 C0.34 8 -0.32 8 -1 8 C-1.33 9.98 -1.66 11.96 -2 14 C-2.66 13.67 -3.32 13.34 -4 13 C-3.52343588 11.20763933 -3.04366502 9.41613103 -2.5625 7.625 C-2.29566406 6.62726563 -2.02882812 5.62953125 -1.75390625 4.6015625 C-1 2 -1 2 0 0 Z " fill="#110D0D" transform="translate(138,74)"/>
<path d="M0 0 C0.99 1.32 1.98 2.64 3 4 C1.23669281 5.5088401 -0.53590397 7.0068298 -2.3125 8.5 C-3.29863281 9.3353125 -4.28476563 10.170625 -5.30078125 11.03125 C-8 13 -8 13 -11 13 C-4 6 -4 6 -2.33203125 4.45703125 C-0.7484282 2.92314951 -0.7484282 2.92314951 0 0 Z " fill="#E48A27" transform="translate(108,63)"/>
<path d="M0 0 C0.66 0.33 1.32 0.66 2 1 C1.88623383 3.12563103 1.75864369 5.2505261 1.625 7.375 C1.52058594 9.15003906 1.52058594 9.15003906 1.4140625 10.9609375 C1 14 1 14 -1 16 C-2.77641602 10.44869995 -2.53883587 5.23634898 0 0 Z M-1 6 C-1 7.98 -1 9.96 -1 12 C-0.67 12 -0.34 12 0 12 C0 10.02 0 8.04 0 6 C-0.33 6 -0.66 6 -1 6 Z " fill="#100C0C" transform="translate(38,122)"/>
<path d="M0 0 C0.33 0.99 0.66 1.98 1 3 C1.66 3 2.32 3 3 3 C2.67 3.66 2.34 4.32 2 5 C0.35232753 4.71890887 -1.29313145 4.42481474 -2.9375 4.125 C-4.31228516 3.88136719 -4.31228516 3.88136719 -5.71484375 3.6328125 C-6.46894531 3.42398438 -7.22304687 3.21515625 -8 3 C-8.33 2.34 -8.66 1.68 -9 1 C-6.04335481 -0.4783226 -3.25770263 -0.06032783 0 0 Z " fill="#0E0B0B" transform="translate(18,109)"/>
<path d="M0 0 C0 3 0 3 -1.3125 4.625 C-3 6 -3 6 -6 7 C-6.33 7.66 -6.66 8.32 -7 9 C-9.97 8.505 -9.97 8.505 -13 8 C-10 6 -10 6 -7.0625 4.5625 C-4.44198462 3.22550236 -2.27855412 1.84037064 0 0 Z " fill="#0F0A0A" transform="translate(130,93)"/>
<path d="M0 0 C2.64 0 5.28 0 8 0 C7.67 0.66 7.34 1.32 7 2 C6.319375 1.87625 5.63875 1.7525 4.9375 1.625 C0.51142186 2.19003125 -1.8748453 4.9739136 -5 8 C-5.33 7.01 -5.66 6.02 -6 5 C-4.6875 3.5 -4.6875 3.5 -3 2 C-2.01 2 -1.02 2 0 2 C0 1.34 0 0.68 0 0 Z " fill="#EB9A28" transform="translate(93,53)"/>
<path d="M0 0 C0 0.33 0 0.66 0 1 C-1.65 1 -3.3 1 -5 1 C-5 2.32 -5 3.64 -5 5 C-5.99 5 -6.98 5 -8 5 C-8.33 6.65 -8.66 8.3 -9 10 C-9.33 10 -9.66 10 -10 10 C-10.32152515 6.46322336 -10.4131192 4.6037896 -8.375 1.625 C-5.3962104 -0.4131192 -3.53677664 -0.32152515 0 0 Z " fill="#E48829" transform="translate(122,124)"/>
<path d="M0 0 C0.66 0.33 1.32 0.66 2 1 C1.484375 1.350625 0.96875 1.70125 0.4375 2.0625 C-1.38280169 4.07690982 -1.38280169 4.07690982 -0.75 7.5625 C-0.18280091 10.83962509 -0.18280091 10.83962509 1 13 C-2.875 11.125 -2.875 11.125 -4 10 C-4.3125 6.625 -4.3125 6.625 -4 3 C-2 1.0625 -2 1.0625 0 0 Z " fill="#4E3D3F" transform="translate(48,99)"/>
<path d="M0 0 C0.99 0 1.98 0 3 0 C3 0.99 3 1.98 3 3 C3.66 3 4.32 3 5 3 C5.36279456 4.28926992 5.71496698 5.58153272 6.0625 6.875 C6.25972656 7.59429688 6.45695312 8.31359375 6.66015625 9.0546875 C7 11 7 11 6 13 C5.34 13 4.68 13 4 13 C3.67 10.03 3.34 7.06 3 4 C2.34 4 1.68 4 1 4 C0.67 2.68 0.34 1.36 0 0 Z " fill="#151010" transform="translate(111,7)"/>
<path d="M0 0 C2.40804568 2.40804568 3.00768759 4.42203775 4.125 7.625 C4.47820313 8.62789062 4.83140625 9.63078125 5.1953125 10.6640625 C5.46085937 11.43492188 5.72640625 12.20578125 6 13 C4.35 13.66 2.7 14.32 1 15 C1.20625 13.948125 1.4125 12.89625 1.625 11.8125 C2.00725563 7.92623445 1.61863906 6.42770623 0 3 C0 2.01 0 1.02 0 0 Z " fill="#543E41" transform="translate(42,78)"/>
<path d="M0 0 C0.144375 0.598125 0.28875 1.19625 0.4375 1.8125 C0.8872439 3.56150404 1.42892341 5.28677023 2 7 C2.03920815 8.99961564 2.04443347 11.00049364 2 13 C1.01 13.495 1.01 13.495 0 14 C-2.05459372 8.40693931 -2.05459372 5.59306069 0 0 Z " fill="#2B2223" transform="translate(37,27)"/>
<path d="M0 0 C0.33 0 0.66 0 1 0 C1.19573608 1.43640171 1.38127816 2.87419504 1.5625 4.3125 C1.66691406 5.11300781 1.77132812 5.91351563 1.87890625 6.73828125 C2 9 2 9 1 12 C0.34 12.66 -0.32 13.32 -1 14 C-2.13732426 10.59598052 -1.83989957 8.22543336 -1.0625 4.75 C-0.86785156 3.85796875 -0.67320313 2.9659375 -0.47265625 2.046875 C-0.31667969 1.37140625 -0.16070312 0.6959375 0 0 Z " fill="#312528" transform="translate(71,129)"/>
<path d="M0 0 C2 3 2 3 2 6 C1.34 6 0.68 6 0 6 C0 6.66 0 7.32 0 8 C-1.32 8.33 -2.64 8.66 -4 9 C-3.35455571 5.51460083 -1.89865603 2.97180943 0 0 Z " fill="#2C2325" transform="translate(133,85)"/>
<path d="M0 0 C4.62 0 9.24 0 14 0 C11 3 11 3 9.0625 3.3984375 C8.381875 3.39070313 7.70125 3.38296875 7 3.375 C5.9790625 3.38660156 5.9790625 3.38660156 4.9375 3.3984375 C3 3 3 3 0 0 Z " fill="#D8A249" transform="translate(95,25)"/>
<path d="M0 0 C0.68513672 0.00773438 1.37027344 0.01546875 2.07617188 0.0234375 C2.75744141 0.01570312 3.43871094 0.00796875 4.140625 0 C7.8527663 0.01454316 9.4745656 0.16403332 12.63867188 2.2734375 C10.98867188 2.6034375 9.33867187 2.9334375 7.63867188 3.2734375 C7.63867188 2.6134375 7.63867188 1.9534375 7.63867188 1.2734375 C2.68867188 1.6034375 -2.26132813 1.9334375 -7.36132812 2.2734375 C-4.8781341 -0.20975652 -3.39466766 0.01332549 0 0 Z " fill="#080404" transform="translate(13.361328125,6.7265625)"/>
<path d="M0 0 C0.66 0 1.32 0 2 0 C2.04241723 2.33294775 2.04092937 4.66702567 2 7 C1 8 1 8 -1.5625 8.0625 C-2.366875 8.041875 -3.17125 8.02125 -4 8 C-2.68 5.36 -1.36 2.72 0 0 Z " fill="#E65F7C" transform="translate(133,28)"/>
<path d="M0 0 C1.93166016 0.01740234 1.93166016 0.01740234 3.90234375 0.03515625 C5.19269531 0.04417969 6.48304687 0.05320312 7.8125 0.0625 C8.81152344 0.07410156 9.81054688 0.08570313 10.83984375 0.09765625 C10.83984375 0.42765625 10.83984375 0.75765625 10.83984375 1.09765625 C4.40484375 1.59265625 4.40484375 1.59265625 -2.16015625 2.09765625 C-2.49015625 3.74765625 -2.82015625 5.39765625 -3.16015625 7.09765625 C-3.49015625 7.09765625 -3.82015625 7.09765625 -4.16015625 7.09765625 C-4.20269981 5.09810879 -4.20096408 3.09723989 -4.16015625 1.09765625 C-3.16015625 0.09765625 -3.16015625 0.09765625 0 0 Z " fill="#423638" transform="translate(8.16015625,9.90234375)"/>
<path d="M0 0 C-0.625 1.9375 -0.625 1.9375 -2 4 C-5.125 4.75 -5.125 4.75 -8 5 C-8.33 4.34 -8.66 3.68 -9 3 C-6.15236477 0.15236477 -3.96383452 0 0 0 Z " fill="#F1AA2D" transform="translate(112,21)"/>
<path d="M0 0 C2 1 2 1 3.125 4.25 C3.85463482 7.37700635 4.19234975 9.82622905 4 13 C1.65085508 10.65085508 1.26859643 9.04320554 0.375 5.875 C0.11460938 4.96492188 -0.14578125 4.05484375 -0.4140625 3.1171875 C-0.60742188 2.41851563 -0.80078125 1.71984375 -1 1 C-0.67 0.67 -0.34 0.34 0 0 Z " fill="#130D0D" transform="translate(32,16)"/>
<path d="M0 0 C0.56203125 0.32742187 1.1240625 0.65484375 1.703125 0.9921875 C4.26859964 2.11785494 5.96842277 2.2068111 8.75 2.125 C9.94882812 2.09792969 9.94882812 2.09792969 11.171875 2.0703125 C12.07679687 2.03550781 12.07679687 2.03550781 13 2 C12.67 2.99 12.34 3.98 12 5 C8.37 4.67 4.74 4.34 1 4 C1 3.34 1 2.68 1 2 C0.34 1.67 -0.32 1.34 -1 1 C-0.67 0.67 -0.34 0.34 0 0 Z " fill="#171313" transform="translate(7,127)"/>
<path d="M0 0 C2.29633824 3.44450737 2.54016485 5.93812283 3 10 C2.01 10.66 1.02 11.32 0 12 C0 8.04 0 4.08 0 0 Z M1 6 C2 8 2 8 2 8 Z " fill="#191515" transform="translate(42,81)"/>
<path d="M0 0 C0.33 0.99 0.66 1.98 1 3 C-1.63904371 4.41377341 -4.07120629 5.37240135 -7 6 C-6 3 -6 3 -2.9375 1.3125 C-1.968125 0.879375 -0.99875 0.44625 0 0 Z " fill="#292222" transform="translate(68,142)"/>
<path d="M0 0 C0.99 0 1.98 0 3 0 C5 2 5 2 5.125 5.625 C5.08375 6.73875 5.0425 7.8525 5 9 C4.01 9 3.02 9 2 9 C1.855625 7.88625 1.71125 6.7725 1.5625 5.625 C1.21627965 2.17857953 1.21627965 2.17857953 0 0 Z " fill="#120F0F" transform="translate(142,31)"/>
<path d="M0 0 C0.66 0.33 1.32 0.66 2 1 C2.33333333 2.66666667 2.66666667 4.33333333 3 6 C3.66 6.33 4.32 6.66 5 7 C3.68 7.33 2.36 7.66 1 8 C0.34 5.69 -0.32 3.38 -1 1 C-0.67 0.67 -0.34 0.34 0 0 Z " fill="#F6AD2E" transform="translate(93,17)"/>
<path d="M0 0 C0.66 0.33 1.32 0.66 2 1 C-1.96 4.465 -1.96 4.465 -6 8 C-6.66 7.01 -7.32 6.02 -8 5 C-6.35 4.34 -4.7 3.68 -3 3 C-3 2.34 -3 1.68 -3 1 C-2.01 0.67 -1.02 0.34 0 0 Z " fill="#32302F" transform="translate(119,20)"/>
<path d="M0 0 C1.32 1.65 2.64 3.3 4 5 C0.98968256 5.93423645 0.13349732 6.04449911 -3 5 C-2.01 3.35 -1.02 1.7 0 0 Z " fill="#BB7C92" transform="translate(111,29)"/>
<path d="M0 0 C0.66 0 1.32 0 2 0 C2 0.66 2 1.32 2 2 C2.66 2 3.32 2 4 2 C4 2.66 4 3.32 4 4 C4.99 4.33 5.98 4.66 7 5 C6.67 5.66 6.34 6.32 6 7 C3.00675737 5.9024777 2.15389099 5.32317108 0.75 2.375 C0.5025 1.59125 0.255 0.8075 0 0 Z " fill="#1B1616" transform="translate(136,24)"/>
<path d="M0 0 C1 2 1 2 0.44140625 3.9453125 C0.15136719 4.66460937 -0.13867188 5.38390625 -0.4375 6.125 C-0.72496094 6.84945312 -1.01242188 7.57390625 -1.30859375 8.3203125 C-1.53675781 8.87460937 -1.76492187 9.42890625 -2 10 C-3 7 -3 7 -2 4 C-2.66 4 -3.32 4 -4 4 C-4 3.34 -4 2.68 -4 2 C-2.68 1.34 -1.36 0.68 0 0 Z " fill="#EB8C27" transform="translate(137,48)"/>
<path d="M0 0 C2.12038635 2.61514317 4.13091744 5.19637616 6 8 C5.01 8.495 5.01 8.495 4 9 C-0.00390625 4.60546875 -0.00390625 4.60546875 -1 3 C-0.67 2.01 -0.34 1.02 0 0 Z " fill="#0C0707" transform="translate(39,137)"/>
<path d="M0 0 C0.66 0.33 1.32 0.66 2 1 C0.86695008 4.39914975 -0.12518475 5.05254451 -3 7 C-3.66 6.34 -4.32 5.68 -5 5 C-3.35 3.35 -1.7 1.7 0 0 Z " fill="#E08829" transform="translate(93,79)"/>
<path d="M0 0 C0.66 0 1.32 0 2 0 C3.7143618 1.95927063 5.38405168 3.95880212 7 6 C4.625 5.8125 4.625 5.8125 2 5 C0.6875 2.4375 0.6875 2.4375 0 0 Z " fill="#282321" transform="translate(89,21)"/>
<path d="M0 0 C2.375 0.1875 2.375 0.1875 5 1 C6.3125 3.5625 6.3125 3.5625 7 6 C3.63279613 4.60667426 2.0140476 3.0210714 0 0 Z " fill="#2B2726" transform="translate(130,21)"/>
<path d="M0 0 C2 2 2 2 2.25 5 C2 8 2 8 0 10 C0 6.7 0 3.4 0 0 Z " fill="#060202" transform="translate(24,116)"/>
<path d="M0 0 C0.33 0 0.66 0 1 0 C1 2.64 1 5.28 1 8 C0.67 8 0.34 8 0 8 C0 5.36 0 2.72 0 0 Z " fill="#060202" transform="translate(87,13)"/>
<path d="M0 0 C1.98 0 3.96 0 6 0 C6 0.33 6 0.66 6 1 C4.02 1 2.04 1 0 1 C0 0.67 0 0.34 0 0 Z " fill="#120B0C" transform="translate(11,132)"/>
<path d="M0 0 C1.65 0 3.3 0 5 0 C5 0.33 5 0.66 5 1 C3.35 1 1.7 1 0 1 C0 0.67 0 0.34 0 0 Z " fill="#0D0708" transform="translate(122,16)"/>
<path d="" fill="#0F0909" transform="translate(0,0)"/>
<path d="" fill="#060202" transform="translate(0,0)"/>
<path d="" fill="#060202" transform="translate(0,0)"/>
<path d="" fill="#060202" transform="translate(0,0)"/>
<path d="" fill="#060202" transform="translate(0,0)"/>
</svg>
